<?xml version="1.0" encoding="UTF-8" standalone="no"?>
<!-- Created with Inkscape (http://www.inkscape.org/) -->

<svg
   xmlns:dc="http://purl.org/dc/elements/1.1/"
   xmlns:cc="http://creativecommons.org/ns#"
   xmlns:rdf="http://www.w3.org/1999/02/22-rdf-syntax-ns#"
   xmlns:svg="http://www.w3.org/2000/svg"
   xmlns="http://www.w3.org/2000/svg"
   xmlns:sodipodi="http://sodipodi.sourceforge.net/DTD/sodipodi-0.dtd"
   xmlns:inkscape="http://www.inkscape.org/namespaces/inkscape"
   width="2095.7661"
   height="410.42758"
   viewBox="0 0 554.50478 108.5923"
   version="1.1"
   id="svg8"
   inkscape:version="0.92.1 r15371"
   sodipodi:docname="byFenixC4.svg"
   inkscape:export-filename="C:\Users\User\Pictures\Steam Logo v2.png"
   inkscape:export-xdpi="258.6301"
   inkscape:export-ydpi="258.6301">
  <defs
     id="defs2">
    <clipPath
       id="clipPath4500"
       clipPathUnits="userSpaceOnUse">
      <path
         id="path4498"
         d="M 0,576 H 576 V 0 H 0 Z"
         inkscape:connector-curvature="0" />
    </clipPath>
    <clipPath
       id="clipPath4610"
       clipPathUnits="userSpaceOnUse">
      <path
         id="path4608"
         d="M 0,551.986 H 530.973 V 0 H 0 Z"
         inkscape:connector-curvature="0" />
    </clipPath>
  </defs>
  <sodipodi:namedview
     id="base"
     pagecolor="#ffffff"
     bordercolor="#666666"
     borderopacity="1.0"
     inkscape:pageopacity="0.0"
     inkscape:pageshadow="2"
     inkscape:zoom="0.20360263"
     inkscape:cx="-906.25933"
     inkscape:cy="674.7534"
     inkscape:document-units="px"
     inkscape:current-layer="layer1"
     showgrid="false"
     inkscape:showpageshadow="false"
     units="px"
     inkscape:window-width="2560"
     inkscape:window-height="1027"
     inkscape:window-x="-8"
     inkscape:window-y="22"
     inkscape:window-maximized="1"
     showborder="true"
     inkscape:pagecheckerboard="false"
     showguides="false" />
  <metadata
     id="metadata5">
    <rdf:RDF>
      <cc:Work
         rdf:about="">
        <dc:format>image/svg+xml</dc:format>
        <dc:type
           rdf:resource="http://purl.org/dc/dcmitype/StillImage" />
        <dc:title />
      </cc:Work>
    </rdf:RDF>
  </metadata>
  <g
     inkscape:label="Layer 1"
     inkscape:groupmode="layer"
     id="layer1"
     transform="translate(560.73565,-152.9776)">
    <g
       id="g4579">
      <path
         sodipodi:nodetypes="cccccccccccccccccczcccccccccccccccccccccccsccc"
         inkscape:connector-curvature="0"
         id="path4482"
         d="m -49.035069,152.9776 c -7.764127,0.0157 -15.37778,2.14286 -22.025697,6.15373 h 11.739788 v 10.28903 h -11.739788 v 13.19107 h 11.739788 v 10.28902 h -11.739788 v 39.52299 c 6.647028,4.01396 14.26074,6.1442 22.025697,6.16254 0.713131,-0.0179 1.425704,-0.0537 2.137049,-0.10721 -6.306063,-6.85769 -10.759544,-23.57271 -10.76035,-43.10771 5.6e-4,-18.84031 4.142738,-35.05963 10.09427,-42.34114 -0.489987,-0.0259 -0.980383,-0.0433 -1.470969,-0.0523 z m 19.685625,4.81173 v 6.37127 l -0.776922,-0.0565 c -17.351821,-2.12743 -18.413871,15.86871 -18.413871,31.26692 0,15.39821 -0.03492,35.95938 18.413871,31.26692 l 0.776922,-0.0564 v 7.16839 c 2.752039,-1.43705 5.339559,-3.16924 7.716895,-5.166 v -9.5748 h -20.459957 v -10.63397 l 17.23625,-47.84278 c -1.440033,-1.00567 -2.940594,-1.92175 -4.493188,-2.74305 z m -53.347006,11.63103 c -5.906397,7.51933 -9.125081,16.79976 -9.142802,26.36143 0.0038,9.58298 3.223273,18.88749 9.142802,26.42359 v -29.30493 -10.28902 z m 73.1931832,10.00259 v 28.95221 h 1.3513246 c 1.2649279,-4.07847 1.9124503,-8.32326 1.9210654,-12.59337 -0.00731,-5.61479 -1.1192201,-11.1733 -3.27239,-16.35884 z m -12.8642552,0.74325 -0.734962,2.46284 -7.718452,25.74612 h 9.188387 v -25.74612 -2.46284 z"
         style="opacity:1;vector-effect:none;fill:#0066ff;fill-opacity:1;fill-rule:evenodd;stroke:none;stroke-width:0.11906252;stroke-linecap:round;stroke-linejoin:miter;stroke-miterlimit:4;stroke-dasharray:none;stroke-dashoffset:0;stroke-opacity:1" />
      <text
         y="259.76666"
         x="-49.443188"
         id="text4527"
         style="font-style:normal;font-variant:normal;font-weight:normal;font-stretch:normal;font-size:23.99638367px;line-height:44.99322128px;font-family:'Ink Free';-inkscape-font-specification:'Ink Free';text-align:center;letter-spacing:4.34944677px;word-spacing:0px;text-anchor:middle;fill:#0066ff;fill-opacity:1;stroke:none;stroke-width:0.26458335px;stroke-linecap:butt;stroke-linejoin:miter;stroke-opacity:1"
         xml:space="preserve"><tspan
           style="font-style:normal;font-variant:normal;font-weight:normal;font-stretch:normal;font-family:'League Gothic';-inkscape-font-specification:'League Gothic';letter-spacing:4.34944677px;fill:#0066ff;fill-opacity:1;stroke-width:0.26458335px"
           id="tspan4525">FenixC4</tspan></text>
      <path
         inkscape:connector-curvature="0"
         id="path4543"
         transform="matrix(0.26458334,0,0,0.26458334,-560.73565,152.9776)"
         d="m 1544.377,320.4668 v 24.8457 c -3.5223,-4.28387 -8.5676,-6.66406 -14.6602,-6.66406 -14.1844,0 -23.5137,10.37745 -23.5137,26.27539 0,16.27873 9.5203,26.8457 23.9903,26.8457 5.9022,0 10.7565,-2.3797 14.1836,-6.56836 v 5.90235 h 19.2304 V 320.4668 Z m 60.3828,0 v 70.63672 h 19.2285 v -5.99805 c 3.5223,4.28387 8.5675,6.66406 14.6601,6.66406 14.2796,0 23.5137,-10.37745 23.5137,-26.27539 0,-16.18352 -9.5183,-26.8457 -23.9883,-26.8457 -5.807,0 -10.7584,2.38019 -14.1855,6.66406 v -24.8457 z m -192.5782,7.13867 v 14.375 h -7.1386 v 12.28125 h 7.1386 v 20.6582 c 0,10.75726 7.4259,17.13423 18.4688,17.03906 5.2358,0 10.7575,-1.23768 14.375,-3.33203 l -3.4277,-13.23242 c -2.2848,0.85678 -4.3792,1.52344 -5.9024,1.52344 -2.6655,0 -4.3789,-1.6173 -4.3789,-4.94922 v -17.70703 h 12.7578 v -12.28125 h -12.7578 v -14.375 z m -125.1035,10.94726 c -7.0446,0 -12.6618,3.23737 -16.2793,8.94922 v -8.1875 h -19.2285 v 51.78907 h 19.2285 v -24.75196 c 0,-7.52058 6.3788,-11.71018 16.2793,-10.47265 z m 89.0801,0 c -8.0918,0 -16.4689,1.90491 -24.9414,5.33204 l 4.7598,12.75585 c 5.7118,-2.47513 11.5178,-3.71289 15.6113,-3.71289 5.9023,0 8.9492,2.57157 8.9492,6.85547 v 0.18946 h -12.6621 c -13.042,0.19048 -19.9902,5.71326 -19.9902,15.70898 0,9.7101 6.4727,16.27734 17.5156,16.27734 6.8542,0 11.9952,-2.37966 15.1367,-6.56836 v 5.7129 h 18.8477 v -33.60547 c 0,-11.99483 -8.6614,-18.94336 -23.2266,-18.94336 z m -155.0039,0.0957 c -16.3739,0 -27.1309,10.66168 -27.1309,26.75 0,15.89794 10.6608,26.37109 26.9395,26.37109 11.4237,0 20.1833,-4.85609 24.1816,-13.42383 l -14.9472,-7.51953 c -1.6184,3.90308 -4.4729,5.71094 -8.1856,5.71094 -5.1407,0 -8.5683,-4.47342 -8.5683,-11.23242 0,-6.56863 3.4276,-11.04297 8.5683,-11.04297 3.6175,0 6.4725,1.90391 8.2813,5.14062 l 14.7558,-7.23632 c -4.379,-8.56778 -13.042,-13.51758 -23.8945,-13.51758 z m 95.9453,0 c -16.3739,0 -27.3223,10.56648 -27.3223,26.75 0,15.89794 10.5667,26.37109 27.8926,26.37109 9.8054,0 17.6129,-3.33268 23.0391,-9.33008 l -9.9961,-9.80468 c -3.4271,3.1415 -7.3303,4.94921 -11.4238,4.94921 -4.9503,0 -8.5667,-2.76066 -10.0899,-7.71093 h 34.8418 c 1.1424,-19.03945 -8.7587,-31.22461 -26.9414,-31.22461 z m 158.4141,0 c -16.3739,0 -27.3223,10.56648 -27.3223,26.75 0,15.89794 10.5667,26.37109 27.8926,26.37109 9.8053,0 17.6128,-3.33268 23.039,-9.33008 l -9.996,-9.80468 c -3.4271,3.1415 -7.3304,4.94921 -11.4239,4.94921 -4.9502,0 -8.5667,-2.76066 -10.0898,-7.71093 h 34.8418 c 1.1423,-19.03945 -8.7587,-31.22461 -26.9414,-31.22461 z m 185.4941,0.66601 21.4199,50.35938 -0.9511,1.80859 c -1.1424,2.28473 -3.0469,3.33203 -5.6172,3.33203 -2.5703,0 -4.5693,-0.85682 -6.9492,-2.95117 l -7.9961,12.85156 c 5.1406,3.90312 10.2799,5.71289 16.6582,5.71289 10.3765,0 17.4221,-4.75922 21.5156,-14.94531 l 21.7051,-56.16797 h -19.1348 l -9.6152,31.70117 -11.3282,-31.70117 z m -343.7187,12.37696 c 4.6647,0 7.9018,3.61716 7.8066,8.75781 h -16.2773 c 0.9519,-5.23586 3.9012,-8.75781 8.4707,-8.75781 z m 158.416,0 c 4.6646,0 7.8999,3.61716 7.8047,8.75781 h -16.2774 c 0.952,-5.23586 3.9032,-8.75781 8.4727,-8.75781 z m 157.6133,1.8086 c 5.7118,0 9.4238,4.6634 9.4238,11.51758 0,6.85421 -3.712,11.51953 -9.4238,11.51953 -5.5215,0 -9.3301,-4.66532 -9.3301,-11.51953 0,-6.85418 3.8086,-11.51758 9.3301,-11.51758 z m -98.2715,0.38086 c 5.6166,0 9.3301,4.6634 9.3301,11.51758 0,6.94941 -3.7135,11.61523 -9.3301,11.61523 -5.7119,0 -9.4239,-4.66582 -9.4239,-11.61523 0,-6.85418 3.712,-11.51758 9.4239,-11.51758 z m -163.2676,15.51758 h 8.7578 v 4.66406 c -1.428,3.23671 -4.8547,5.33008 -8.7578,5.33008 -3.7127,0 -5.8086,-1.90392 -5.8086,-5.14063 0,-3.23671 2.0007,-4.85351 5.8086,-4.85351 z"
         style="font-style:normal;font-variant:normal;font-weight:normal;font-stretch:normal;font-size:medium;line-height:47.22676468px;font-family:Montserrat;-inkscape-font-specification:Montserrat;text-align:center;letter-spacing:0px;word-spacing:0px;text-anchor:middle;fill:#0066ff;fill-opacity:1;stroke:none;stroke-width:0.99999994px;stroke-linecap:butt;stroke-linejoin:miter;stroke-opacity:1" />
      <path
         inkscape:connector-curvature="0"
         id="path4532"
         d="m -416.12779,223.61096 c -7.12787,0 -14.43995,3.03279 -14.43995,17.61133 0,14.5789 8.37144,16.75143 15.42594,16.75143 5.84094,0 9.38392,-2.49597 9.38392,-2.49597 0.14605,-0.0804 0.16227,-0.28478 0.16227,-0.37827 v -16.28169 c 0,-0.27552 -0.22368,-0.4992 -0.4992,-0.4992 h -10.67738 c -0.27552,0 -0.4992,0.22368 -0.4992,0.4992 v 5.22035 c 0,0.27552 0.22368,0.49971 0.4992,0.49971 h 4.16512 v 6.48591 c 0,0 -0.93486,0.31885 -3.52072,0.31885 -3.05047,0 -7.31221,-1.11448 -7.31221,-10.48567 0,-9.37295 4.43765,-10.60659 8.60361,-10.60659 3.60609,0 5.15946,0.63517 6.14794,0.94103 0.3108,0.0949 0.59841,-0.21386 0.59841,-0.48938 l 1.19115,-5.04413 c 0,-0.12912 -0.0439,-0.28416 -0.19069,-0.38964 -0.40146,-0.28646 -2.85049,-1.65727 -9.03821,-1.65727 z m 42.17727,1.24489 c -0.2734,0 -0.49609,0.22414 -0.49609,0.50178 v 31.46009 c 0,0.27729 0.22269,0.50333 0.49609,0.50333 h 6.01152 c 0.27517,0 0.49661,-0.22604 0.49661,-0.50333 v -13.45654 h 9.37101 c 0,0 -0.016,13.45548 -0.016,13.45654 0,0.27729 0.22265,0.50333 0.49816,0.50333 h 6.02599 c 0.27517,0 0.49539,-0.22604 0.4961,-0.50333 v -31.46009 c 0,-0.27764 -0.22006,-0.50178 -0.49558,-0.50178 h -6.01204 c -0.27481,0 -0.49764,0.22414 -0.49764,0.50178 l 10e-4,11.61893 h -9.37101 v -11.61893 c 0,-0.27764 -0.22144,-0.50178 -0.49661,-0.50178 z m 49.8197,0 c -0.27411,0 -0.49713,0.22414 -0.49713,0.50178 v 31.46009 c 0,0.27764 0.22283,0.50333 0.49765,0.50333 h 4.1832 c 0.18839,0 0.33119,-0.0971 0.43667,-0.26717 0.10407,-0.16898 0.25373,-1.45055 0.25373,-1.45055 0,0 2.46497,2.33629 7.13187,2.33629 5.47934,0 8.62169,-2.77909 8.62169,-12.47624 0,-9.69716 -5.0184,-10.96419 -8.4093,-10.96419 -3.38844,0 -5.6932,1.51153 -5.6932,1.51153 v -10.65309 c 0,-0.27764 -0.22233,-0.50178 -0.49609,-0.50178 z m -74.49571,0.71624 c -2.13924,0 -3.87625,1.74932 -3.87625,3.91397 0,2.16253 1.73701,3.91707 3.87625,3.91707 2.14136,0 3.87677,-1.75454 3.87677,-3.91707 0,-2.16465 -1.73541,-3.91397 -3.87677,-3.91397 z m 9.68675,3.28713 c -0.23883,0 -0.36691,0.10521 -0.36691,0.33487 v 6.15673 c 0,0 -3.08003,0.74324 -3.28817,0.80356 -0.20743,0.06 -0.36018,0.25131 -0.36018,0.47956 v 3.86902 c 0,0.27798 0.22231,0.50281 0.49712,0.50281 h 3.15123 v 9.30744 c 0,6.91303 4.84894,7.5923 8.12096,7.5923 1.49542,0 3.28435,-0.4801 3.57962,-0.58911 0.17851,-0.0656 0.28267,-0.25076 0.28267,-0.45114 l 0.005,-4.25607 c 0,-0.27763 -0.23429,-0.50229 -0.49816,-0.50229 -0.26282,0 -0.93566,0.10697 -1.62781,0.10697 -2.21509,0 -2.96571,-1.03002 -2.96571,-2.36316 0,-1.33244 0,-8.84494 0,-8.84494 h 4.5098 c 0.27482,0 0.49816,-0.22483 0.49816,-0.50281 v -4.84622 c 0,-0.27764 -0.22334,-0.50126 -0.49816,-0.50126 h -4.5098 c 0,0 -0.007,-5.95636 -0.007,-5.95778 0,-0.22542 -0.11618,-0.33848 -0.37724,-0.33848 z m -12.72997,6.29936 c -0.27517,0 -0.52142,0.28327 -0.52142,0.55914 v 20.80545 c 0,0.61101 0.38118,0.79323 0.87436,0.79323 h 5.39967 c 0.59232,0 0.73743,-0.29117 0.73743,-0.80305 v -6.33191 -14.52211 c 0,-0.27553 -0.22196,-0.50075 -0.49713,-0.50075 z m 54.04889,0.047 c -0.27305,0 -0.49712,0.2257 -0.49712,0.50333 v 14.47044 c 0,6.25651 3.48701,7.78712 8.28373,7.78712 3.93559,0 7.10809,-2.17403 7.10809,-2.17403 0,0 0.15083,1.14576 0.21962,1.28158 0.0681,0.13546 0.24612,0.27233 0.43874,0.27233 l 3.85196,-0.017 c 0.27305,0 0.49713,-0.22571 0.49713,-0.50229 l -0.002,-21.11809 c 0,-0.27764 -0.22283,-0.50333 -0.49764,-0.50333 h -5.96605 c -0.27375,0 -0.49609,0.22569 -0.49609,0.50333 v 15.42541 c 0,0 -1.51624,1.10898 -3.66748,1.10898 -2.15124,0 -2.72179,-0.97606 -2.72179,-3.0825 v -13.45191 c 0,-0.27763 -0.22234,-0.50333 -0.4961,-0.50333 z m 33.36747,5.02812 c 1.99767,-0.0684 3.81683,0.80206 3.81683,5.6069 0,5.4042 -0.93434,6.47107 -3.82923,6.38358 -2.06939,-0.0631 -3.47265,-1.002 -3.47265,-1.002 v -9.9627 c 0,0 1.38455,-0.84876 3.08353,-1.00046 0.13427,-0.012 0.26834,-0.0208 0.40152,-0.0253 z"
         style="fill:#0f0e0f;fill-opacity:1;fill-rule:nonzero;stroke:none;stroke-width:0.35277775" />
      <path
         inkscape:connector-curvature="0"
         style="fill:#1b1817;fill-opacity:1;fill-rule:evenodd;stroke:none;stroke-width:0.35277778"
         d="m -275.87649,220.01478 c -11.76409,0 -21.30362,9.53741 -21.30362,21.30361 0,9.41211 6.10407,17.39786 14.56862,20.21478 1.06469,0.1972 1.45574,-0.46257 1.45574,-1.02526 0,-0.50765 -0.0198,-2.18605 -0.0289,-3.96616 -5.92667,1.28869 -7.17733,-2.51354 -7.17733,-2.51354 -0.96909,-2.46204 -2.36524,-3.11712 -2.36524,-3.11712 -1.93286,-1.32221 0.14573,-1.29502 0.14573,-1.29502 2.13924,0.15029 3.26544,2.19573 3.26544,2.19573 1.90005,3.2565 4.98342,2.31478 6.1991,1.77044 0.19156,-1.37653 0.74364,-2.31641 1.35287,-2.8484 -4.73181,-0.53834 -9.70584,-2.36564 -9.70584,-10.52856 0,-2.32551 0.8319,-4.2261 2.19469,-5.718 -0.22119,-0.53657 -0.95041,-2.70349 0.20669,-5.6379 0,0 1.7889,-0.57189 5.8596,2.18436 1.69934,-0.47201 3.52203,-0.7088 5.33249,-0.71726 1.81046,0.008 3.63413,0.24525 5.33662,0.71726 4.06612,-2.75625 5.85287,-2.18436 5.85287,-2.18436 1.15959,2.93441 0.42998,5.10133 0.20879,5.6379 1.36596,1.4919 2.19262,3.39249 2.19262,5.718 0,8.18268 -4.98377,9.9841 -9.72756,10.5115 0.76412,0.66111 1.44486,1.95743 1.44486,3.94498 0,2.85045 -0.0243,5.14447 -0.0243,5.84615 0,0.56727 0.38312,1.23152 1.46296,1.02268 8.46032,-2.82011 14.55674,-10.80291 14.55674,-20.2122 0,-11.7662 -9.53812,-21.30361 -21.30361,-21.30361 z m -13.54026,30.2302 c -0.11415,-0.017 -0.2162,0.0203 -0.25062,0.1018 -0.0501,0.10619 0.0363,0.25049 0.19119,0.32039 0.15169,0.0726 0.31795,0.0411 0.36483,-0.0651 0.0533,-0.10619 -0.0346,-0.25193 -0.18912,-0.32143 -0.0386,-0.0182 -0.0782,-0.03 -0.11628,-0.0356 z m 0.76377,0.73277 c -0.0349,0.007 -0.0668,0.0219 -0.093,0.0455 -0.10298,0.0952 -0.0772,0.29435 0.0625,0.44287 0.13441,0.1488 0.33351,0.19239 0.43511,0.0982 0.10617,-0.0956 0.0792,-0.29258 -0.0605,-0.44287 -0.10451,-0.11138 -0.23924,-0.16404 -0.34417,-0.14366 z m 0.88265,1.0852 c -0.0404,0.002 -0.0781,0.014 -0.1111,0.0367 -0.13354,0.091 -0.13364,0.31818 -0.003,0.50798 0.13195,0.18944 0.34542,0.27445 0.47596,0.18345 0.13317,-0.0928 0.13327,-0.32001 0.003,-0.51263 -0.10028,-0.14088 -0.24368,-0.22201 -0.36484,-0.21549 z m 1.02216,1.21078 c -0.071,0.003 -0.13385,0.0286 -0.1783,0.077 -0.11676,0.12877 -0.0648,0.3727 0.12144,0.54415 0.18204,0.176 0.43048,0.21041 0.54727,0.0817 0.12417,-0.12735 0.0681,-0.3727 -0.11679,-0.54415 -0.11467,-0.10894 -0.2553,-0.16421 -0.37362,-0.15865 z m 1.55028,0.92604 c -0.17256,-0.002 -0.31692,0.074 -0.35449,0.19999 -0.0487,0.16863 0.1089,0.36367 0.34986,0.43667 0.2413,0.0709 0.48035,-0.005 0.53226,-0.17157 0.0501,-0.16969 -0.10771,-0.36345 -0.3483,-0.43615 -0.0608,-0.019 -0.12181,-0.0283 -0.17933,-0.0289 z m 3.56568,0.0765 c -0.057,-0.006 -0.11843,-0.004 -0.18137,0.007 -0.24731,0.0455 -0.42656,0.22172 -0.39584,0.3974 0.0314,0.16966 0.26066,0.27546 0.50797,0.22996 0.25151,-0.0469 0.42717,-0.22268 0.39687,-0.39378 -0.0241,-0.13068 -0.15647,-0.22159 -0.32763,-0.24029 z m -1.75546,0.20516 c -0.25434,0.005 -0.45474,0.14863 -0.45474,0.32608 0.003,0.17286 0.20934,0.31554 0.46406,0.30954 0.25328,-0.003 0.45765,-0.14885 0.45164,-0.32453 0,-0.17427 -0.20765,-0.31609 -0.46096,-0.31109 z"
         id="path4618" />
      <path
         inkscape:connector-curvature="0"
         id="path4514"
         transform="matrix(0.26458334,0,0,0.26458334,-560.73565,152.9776)"
         d="m 326.50391,324.64258 v 19.93945 c -2.8266,-3.43774 -6.87444,-5.34765 -11.76368,-5.34765 -11.3828,0 -18.87109,8.32611 -18.87109,21.08398 0,13.06344 7.64,21.54492 19.25195,21.54492 4.73647,0 8.63261,-1.91012 11.38282,-5.27148 v 4.73632 h 15.43164 v -56.68554 z m 48.45507,0 v 56.68554 h 15.43164 v -4.8125 c 2.8266,3.43779 6.87636,5.34766 11.76563,5.34766 11.45915,0 18.86914,-8.32803 18.86914,-21.08594 0,-12.98706 -7.63996,-21.54297 -19.25195,-21.54296 -4.66005,0 -8.6326,1.90991 -11.38282,5.34765 V 324.64258 Z M 247.15039,339.1582 c -5.65323,0 -10.15952,2.59798 -13.0625,7.18164 v -6.57031 h -15.43164 v 41.55859 h 15.43164 v -19.86328 c 0,-6.03518 5.11744,-9.39545 13.0625,-8.40234 z m -220.335937,0.0762 c -4.660044,0 -8.632601,1.90991 -11.382812,5.34765 v -4.8125 H 0 v 56.37891 h 15.431641 v -19.63282 c 2.826595,3.43779 6.876352,5.34766 11.765625,5.34766 11.459149,0 18.86914,-8.32803 18.86914,-21.08594 0,-12.98706 -7.639959,-21.54297 -19.251953,-21.54296 z m 45.263672,0 c -13.980208,0 -23.146484,8.40377 -23.146484,21.31445 0,12.83425 9.166276,21.31445 23.146484,21.31445 13.98017,0 23.072266,-8.4802 23.072266,-21.31445 0,-12.91068 -9.092096,-21.31446 -23.072266,-21.31445 z m 118.740235,0 c -13.13987,0 -21.92383,8.47973 -21.92383,21.46679 0,12.75787 8.47899,21.16211 22.38281,21.16211 7.8686,0 14.13382,-2.67543 18.48828,-7.48828 l -8.02148,-7.86719 c -2.75021,2.52102 -5.88299,3.97266 -9.16797,3.97266 -3.97251,0 -6.87532,-2.21694 -8.09765,-6.18945 h 27.96093 c 0.91673,-15.2789 -7.02973,-25.05664 -21.62109,-25.05664 z m 80.42383,0 c -13.13983,0 -21.92578,8.47973 -21.92578,21.46679 0,12.75787 8.48098,21.16211 22.38476,21.16211 7.86864,0 14.13182,-2.67543 18.48633,-7.48828 l -8.02148,-7.86719 c -2.75022,2.52102 -5.88108,3.97266 -9.16602,3.97266 -3.97255,0 -6.87536,-2.21694 -8.09766,-6.18945 h 27.95899 c 0.91672,-15.2789 -7.02779,-25.05664 -21.61914,-25.05664 z m -176.478518,0.53515 15.126948,41.55859 h 15.20118 l 7.02929,-23.83593 6.875,23.83593 h 15.20313 l 15.125,-41.55859 h -14.97266 l -7.33398,26.50781 -7.41016,-26.50781 H 125.0918 l -7.17969,26.50781 -7.48828,-26.50781 z m 325.335938,0 17.18945,40.41211 -0.76562,1.45117 c -0.91676,1.83345 -2.44322,2.67383 -4.50586,2.67383 -2.06268,0 -3.66826,-0.68651 -5.57813,-2.36719 l -6.41601,10.3125 c 4.12531,3.13217 8.25071,4.58399 13.36914,4.58399 8.32702,0 13.97869,-3.81993 17.26367,-11.99414 l 17.41797,-45.07227 H 452.7207 l -7.71679,25.43945 -9.0918,-25.43945 z m -229.12695,9.93164 c 3.74335,0 6.34005,2.90203 6.26367,7.02735 h -13.0625 c 0.76395,-4.20171 3.13189,-7.02735 6.79883,-7.02735 z m 80.42187,0 c 3.74332,0 6.34201,2.90203 6.26563,7.02735 H 264.5957 c 0.76392,-4.20171 3.1319,-7.02735 6.79883,-7.02735 z m -248.476561,1.45117 c 4.583697,0 7.5625,3.74376 7.5625,9.24414 0,5.50043 -2.978803,9.24219 -7.5625,9.24219 -4.430854,0 -7.486328,-3.74176 -7.486328,-9.24219 0,-5.50038 3.055474,-9.24414 7.486328,-9.24414 z m 374.960941,0 c 4.58369,0 7.5625,3.74376 7.5625,9.24414 0,5.50043 -2.97881,9.24219 -7.5625,9.24219 -4.43086,0 -7.48829,-3.74176 -7.48829,-9.24219 0,-5.50038 3.05743,-9.24414 7.48829,-9.24414 z m -325.800785,0.30469 c 4.507276,0 7.486328,3.74376 7.486328,9.24414 0,5.57681 -2.979052,9.24414 -7.486328,9.24414 -4.583698,0 -7.5625,-3.66733 -7.5625,-9.24414 0,-5.50038 2.978802,-9.24414 7.5625,-9.24414 z m 246.939455,0 c 4.50727,0 7.48633,3.74376 7.48633,9.24414 0,5.57681 -2.97906,9.32031 -7.48633,9.32031 -4.58366,0 -7.5625,-3.7435 -7.5625,-9.32031 0,-5.50038 2.97884,-9.24414 7.5625,-9.24414 z"
         style="font-style:normal;font-variant:normal;font-weight:normal;font-stretch:normal;font-size:medium;line-height:0px;font-family:Montserrat;-inkscape-font-specification:Montserrat;text-align:center;letter-spacing:0px;word-spacing:0px;text-anchor:middle;fill:#0f0e0f;fill-opacity:1;stroke:none;stroke-width:1.00000012px;stroke-linecap:butt;stroke-linejoin:miter;stroke-opacity:1" />
    </g>
  </g>
</svg>
