<?xml version="1.0" encoding="UTF-8" standalone="no"?>
<!-- Created with Inkscape (http://www.inkscape.org/) -->

<svg
   xmlns:dc="http://purl.org/dc/elements/1.1/"
   xmlns:cc="http://creativecommons.org/ns#"
   xmlns:rdf="http://www.w3.org/1999/02/22-rdf-syntax-ns#"
   xmlns:svg="http://www.w3.org/2000/svg"
   xmlns="http://www.w3.org/2000/svg"
   xmlns:sodipodi="http://sodipodi.sourceforge.net/DTD/sodipodi-0.dtd"
   xmlns:inkscape="http://www.inkscape.org/namespaces/inkscape"
   width="2095.7661"
   height="410.42758"
   viewBox="0 0 554.50478 108.5923"
   version="1.1"
   id="svg8"
   inkscape:version="0.92.1 r15371"
   sodipodi:docname="byFenixC4.svg"
   inkscape:export-filename="C:\Users\User\Pictures\Steam Logo v2.png"
   inkscape:export-xdpi="258.6301"
   inkscape:export-ydpi="258.6301">
  <defs
     id="defs2">
    <clipPath
       id="clipPath4500"
       clipPathUnits="userSpaceOnUse">
      <path
         id="path4498"
         d="M 0,576 H 576 V 0 H 0 Z"
         inkscape:connector-curvature="0" />
    </clipPath>
    <clipPath
       id="clipPath4610"
       clipPathUnits="userSpaceOnUse">
      <path
         id="path4608"
         d="M 0,551.986 H 530.973 V 0 H 0 Z"
         inkscape:connector-curvature="0" />
    </clipPath>
  </defs>
  <sodipodi:namedview
     id="base"
     pagecolor="#ffffff"
     bordercolor="#666666"
     borderopacity="1.0"
     inkscape:pageopacity="0.0"
     inkscape:pageshadow="2"
     inkscape:zoom="0.23001265"
     inkscape:cx="-384.46438"
     inkscape:cy="759.97974"
     inkscape:document-units="px"
     inkscape:current-layer="layer1"
     showgrid="false"
     inkscape:showpageshadow="false"
     units="px"
     inkscape:window-width="2560"
     inkscape:window-height="1027"
     inkscape:window-x="-8"
     inkscape:window-y="22"
     inkscape:window-maximized="1"
     showborder="true"
     inkscape:pagecheckerboard="false"
     showguides="false" />
  <metadata
     id="metadata5">
    <rdf:RDF>
      <cc:Work
         rdf:about="">
        <dc:format>image/svg+xml</dc:format>
        <dc:type
           rdf:resource="http://purl.org/dc/dcmitype/StillImage" />
        <dc:title />
      </cc:Work>
    </rdf:RDF>
  </metadata>
  <g
     inkscape:label="Layer 1"
     inkscape:groupmode="layer"
     id="layer1"
     transform="translate(560.73565,-152.9776)">
    <g
       id="g4532">
      <path
         sodipodi:nodetypes="cccccccccccccccccczcccccccccccccccccccccccsccc"
         inkscape:connector-curvature="0"
         id="path4482"
         d="m -49.035069,152.9776 c -7.764127,0.0157 -15.37778,2.14286 -22.025697,6.15373 h 11.739788 v 10.28903 h -11.739788 v 13.19107 h 11.739788 v 10.28902 h -11.739788 v 39.52299 c 6.647028,4.01396 14.26074,6.1442 22.025697,6.16254 0.713131,-0.0179 1.425704,-0.0537 2.137049,-0.10721 -6.306063,-6.85769 -10.759544,-23.57271 -10.76035,-43.10771 5.6e-4,-18.84031 4.142738,-35.05963 10.09427,-42.34114 -0.489987,-0.0259 -0.980383,-0.0433 -1.470969,-0.0523 z m 19.685625,4.81173 v 6.37127 l -0.776922,-0.0565 c -17.351821,-2.12743 -18.413871,15.86871 -18.413871,31.26692 0,15.39821 -0.03492,35.95938 18.413871,31.26692 l 0.776922,-0.0564 v 7.16839 c 2.752039,-1.43705 5.339559,-3.16924 7.716895,-5.166 v -9.5748 h -20.459957 v -10.63397 l 17.23625,-47.84278 c -1.440033,-1.00567 -2.940594,-1.92175 -4.493188,-2.74305 z m -53.347006,11.63103 c -5.906397,7.51933 -9.125081,16.79976 -9.142802,26.36143 0.0038,9.58298 3.223273,18.88749 9.142802,26.42359 v -29.30493 -10.28902 z m 73.1931832,10.00259 v 28.95221 h 1.3513246 c 1.2649279,-4.07847 1.9124503,-8.32326 1.9210654,-12.59337 -0.00731,-5.61479 -1.1192201,-11.1733 -3.27239,-16.35884 z m -12.8642552,0.74325 -0.734962,2.46284 -7.718452,25.74612 h 9.188387 v -25.74612 -2.46284 z"
         style="opacity:1;vector-effect:none;fill:#0066ff;fill-opacity:1;fill-rule:evenodd;stroke:none;stroke-width:0.11906252;stroke-linecap:round;stroke-linejoin:miter;stroke-miterlimit:4;stroke-dasharray:none;stroke-dashoffset:0;stroke-opacity:1" />
      <path
         inkscape:connector-curvature="0"
         id="path4502"
         transform="matrix(0.26458334,0,0,0.26458334,-560.73565,152.9776)"
         d="m 2015.5625,336.22656 c -13.1508,0 -13.0605,14.41992 -13.0605,14.41992 v 39.27149 c 0,0 -0.09,14.41992 13.0605,14.41992 13.1508,0 13.0605,-14.41992 13.0605,-14.41992 v -9.16016 h -9.1601 v 9.16016 c 0,0 0.3625,4.89648 -3.7188,4.89648 -3.4464,0 -3.4472,-4.89648 -3.4472,-4.89648 v -39.27149 c 0,0 8e-4,-4.89843 3.4472,-4.89843 4.0813,0 3.7188,4.89843 3.7188,4.89843 v 9.16016 h 9.1601 v -9.16016 c 0,0 0.09,-14.41992 -13.0605,-14.41992 z m -224.6387,0.72461 v 66.66016 h 9.795 v -29.02149 h 9.0683 v -10.0664 h -9.0683 v -17.50586 h 13.5136 v -10.06641 z m 135.4063,0 v 9.16016 h 9.1601 v -9.16016 z m 136.3906,0 -14.3301,43.53321 v 8.61718 h 15.1465 v 14.50977 h 8.9785 v -14.50977 h 4.5332 v -8.61718 h -4.5332 v -43.53321 z m -217.8086,16.32617 c -11.7903,0 -11.8828,13.0586 -11.8828,13.0586 v 24.9414 c 0,0 7e-4,13.06055 11.791,13.06055 11.8811,0 11.8809,-12.78906 11.8809,-12.78906 v -5.71289 h -8.5254 v 5.4414 c 0,0 0.1827,4.98828 -3.2637,4.98828 -3.3557,0 -3.3574,-4.98828 -3.3574,-4.98828 v -10.79296 h 15.1465 v -14.41993 c 0,0 0.092,-12.78711 -11.7891,-12.78711 z m 50.9297,0 c -3.1743,0 -6.71,4.44302 -7.4356,4.89649 v -4.17188 h -9.1601 v 49.60938 h 9.1601 v -39.08789 c 0,0 1.1783,-2.35938 2.9922,-2.35938 1.0884,0 2.1758,0.2732 2.1758,2.17774 v 39.26953 h 9.1602 v -40.63086 c 0,-4.08125 -1.9951,-9.70313 -6.8926,-9.70313 z m 30.4883,0.72461 v 49.60938 h 9.1601 v -49.60938 z m 30.7344,0 7.8007,24.03516 -8.5254,25.57422 h 8.8887 l 3.7168,-12.51563 0.2735,-1.35937 h 0.1816 l 0.2715,1.35937 3.7187,12.51563 h 8.8887 l -8.5254,-25.57422 7.7988,-24.03516 h -8.6152 l -3.2656,11.60938 -0.2715,1.35937 h -0.1816 l -0.2735,-1.35937 -3.2637,-11.60938 z m 105.9277,3.62696 h 0.5449 v 1.99609 20.85938 h -6.8027 l 5.7129,-20.85938 z m -218.0801,3.6289 c 3.4464,0 3.2637,5.07813 3.2637,5.07813 v 6.98437 h -6.6211 v -6.98437 c 0,0 0,-5.07813 3.3574,-5.07813 z"
         style="font-style:normal;font-variant:normal;font-weight:normal;font-stretch:normal;font-size:medium;line-height:44.99322128px;font-family:'League Gothic';-inkscape-font-specification:'League Gothic';text-align:center;letter-spacing:4.34944677px;word-spacing:0px;text-anchor:middle;fill:#0066ff;fill-opacity:1;stroke:none;stroke-width:1px;stroke-linecap:butt;stroke-linejoin:miter;stroke-opacity:1" />
      <path
         inkscape:connector-curvature="0"
         id="path4543"
         d="m -152.11923,237.76778 v 6.57375 c -0.93194,-1.13344 -2.26684,-1.76319 -3.87884,-1.76319 -3.75296,0 -6.22133,2.7457 -6.22133,6.95203 0,4.30708 2.51891,7.10292 6.34743,7.10292 1.56162,0 2.84599,-0.62963 3.75274,-1.73788 v 1.56167 h 5.08805 v -18.6893 z m 15.97629,0 v 18.6893 h 5.08754 v -1.58699 c 0.93194,1.13344 2.26682,1.7632 3.87882,1.7632 3.77814,0 6.22133,-2.7457 6.22133,-6.95203 0,-4.28189 -2.51838,-7.10292 -6.3469,-7.10292 -1.53644,0 -2.8465,0.62975 -3.75325,1.76319 v -6.57375 z m -50.95299,1.88877 v 3.80338 h -1.88875 v 3.24942 h 1.88875 v 5.46581 c 0,2.8462 1.96477,4.53344 4.88654,4.50826 1.38531,0 2.84626,-0.32747 3.80339,-0.8816 l -0.90692,-3.50108 c -0.60452,0.22669 -1.15866,0.40308 -1.56167,0.40308 -0.70525,0 -1.15859,-0.42792 -1.15859,-1.30949 v -4.68498 h 3.37551 v -3.24942 h -3.37551 v -3.80338 z m -33.1003,2.89646 c -1.86388,0 -3.3501,0.85656 -4.30723,2.36782 v -2.16628 h -5.08754 v 13.70253 h 5.08754 v -6.54896 c 0,-1.98982 1.68773,-3.09832 4.30723,-2.77089 z m 23.56911,0 c -2.14095,0 -4.35739,0.50401 -6.59908,1.41077 l 1.25937,3.37499 c 1.51124,-0.65488 3.04742,-0.98237 4.13049,-0.98237 1.56165,0 2.36781,0.68039 2.36781,1.81384 v 0.0501 h -3.35018 c -3.4507,0.0504 -5.28908,1.51163 -5.28908,4.15633 0,2.56913 1.71257,4.30672 4.63434,4.30672 1.81351,0 3.17373,-0.62962 4.00492,-1.73788 v 1.51154 h 4.98678 v -8.89145 c 0,-3.17363 -2.29166,-5.0121 -6.14537,-5.0121 z m -41.01145,0.0253 c -4.33226,0 -7.17838,2.82091 -7.17838,7.07761 0,4.20633 2.82067,6.97735 7.12774,6.97735 3.02252,0 5.34017,-1.28484 6.39805,-3.55172 l -3.95478,-1.98955 c -0.4282,1.03269 -1.18345,1.51102 -2.16577,1.51102 -1.36015,0 -2.26703,-1.18359 -2.26703,-2.97191 0,-1.73795 0.90688,-2.92178 2.26703,-2.92178 0.95713,0 1.71251,0.50374 2.19109,1.36012 l 3.90414,-1.91461 c -1.15861,-2.26689 -3.4507,-3.57653 -6.32209,-3.57653 z m 25.38553,0 c -4.33226,0 -7.22902,2.79572 -7.22902,7.07761 0,4.20633 2.79577,6.97735 7.37991,6.97735 2.59435,0 4.66008,-0.88177 6.09577,-2.46859 l -2.64481,-2.59415 c -0.90675,0.83119 -1.93947,1.30948 -3.02254,1.30948 -1.30977,0 -2.26661,-0.73043 -2.66962,-2.04019 h 9.21856 c 0.30226,-5.03752 -2.31741,-8.26151 -7.12825,-8.26151 z m 41.91373,0 c -4.33226,0 -7.22902,2.79572 -7.22902,7.07761 0,4.20633 2.79577,6.97735 7.37991,6.97735 2.59432,0 4.66006,-0.88177 6.09574,-2.46859 l -2.64477,-2.59415 c -0.90676,0.83119 -1.93951,1.30948 -3.02258,1.30948 -1.30974,0 -2.2666,-0.73043 -2.66959,-2.04019 h 9.21856 c 0.30223,-5.03752 -2.31741,-8.26151 -7.12825,-8.26151 z m 49.07865,0.17622 5.66735,13.32425 -0.25165,0.47852 c -0.30226,0.60451 -0.80615,0.8816 -1.48621,0.8816 -0.68006,0 -1.20896,-0.2267 -1.83865,-0.78083 l -2.11563,3.40031 c 1.36012,1.0327 2.71989,1.51154 4.40748,1.51154 2.74545,0 4.6096,-1.25921 5.69267,-3.95428 l 5.74281,-14.86111 h -5.06275 l -2.54402,8.3876 -2.99725,-8.3876 z m -90.94224,3.27474 c 1.2342,0 2.09068,0.95704 2.0655,2.31717 h -4.30671 c 0.25186,-1.38533 1.0322,-2.31717 2.24121,-2.31717 z m 41.91423,0 c 1.23418,0 2.09019,0.95704 2.065,2.31717 h -4.30673 c 0.25188,-1.38533 1.03272,-2.31717 2.24173,-2.31717 z m 41.70186,0.47852 c 1.51124,0 2.49338,1.23386 2.49338,3.04736 0,1.81351 -0.98214,3.04788 -2.49338,3.04788 -1.4609,0 -2.46859,-1.23437 -2.46859,-3.04788 0,-1.8135 1.00769,-3.04736 2.46859,-3.04736 z m -26.001,0.10077 c 1.48605,0 2.46858,1.23386 2.46858,3.04736 0,1.8387 -0.98253,3.0732 -2.46858,3.0732 -1.51128,0 -2.49341,-1.2345 -2.49341,-3.0732 0,-1.8135 0.98213,-3.04736 2.49341,-3.04736 z m -43.19789,4.10569 h 2.31717 v 1.23404 c -0.37783,0.85638 -1.28448,1.41025 -2.31717,1.41025 -0.98232,0 -1.53686,-0.50375 -1.53686,-1.36013 0,-0.85638 0.52935,-1.28416 1.53686,-1.28416 z"
         style="font-style:normal;font-variant:normal;font-weight:normal;font-stretch:normal;font-size:medium;line-height:47.22676468px;font-family:Montserrat;-inkscape-font-specification:Montserrat;text-align:center;letter-spacing:0px;word-spacing:0px;text-anchor:middle;fill:#0066ff;fill-opacity:1;stroke:none;stroke-width:0.26458332px;stroke-linecap:butt;stroke-linejoin:miter;stroke-opacity:1" />
      <path
         inkscape:connector-curvature="0"
         id="path4532"
         d="m -416.12779,223.61096 c -7.12787,0 -14.43995,3.03279 -14.43995,17.61133 0,14.5789 8.37144,16.75143 15.42594,16.75143 5.84094,0 9.38392,-2.49597 9.38392,-2.49597 0.14605,-0.0804 0.16227,-0.28478 0.16227,-0.37827 v -16.28169 c 0,-0.27552 -0.22368,-0.4992 -0.4992,-0.4992 h -10.67738 c -0.27552,0 -0.4992,0.22368 -0.4992,0.4992 v 5.22035 c 0,0.27552 0.22368,0.49971 0.4992,0.49971 h 4.16512 v 6.48591 c 0,0 -0.93486,0.31885 -3.52072,0.31885 -3.05047,0 -7.31221,-1.11448 -7.31221,-10.48567 0,-9.37295 4.43765,-10.60659 8.60361,-10.60659 3.60609,0 5.15946,0.63517 6.14794,0.94103 0.3108,0.0949 0.59841,-0.21386 0.59841,-0.48938 l 1.19115,-5.04413 c 0,-0.12912 -0.0439,-0.28416 -0.19069,-0.38964 -0.40146,-0.28646 -2.85049,-1.65727 -9.03821,-1.65727 z m 42.17727,1.24489 c -0.2734,0 -0.49609,0.22414 -0.49609,0.50178 v 31.46009 c 0,0.27729 0.22269,0.50333 0.49609,0.50333 h 6.01152 c 0.27517,0 0.49661,-0.22604 0.49661,-0.50333 v -13.45654 h 9.37101 c 0,0 -0.016,13.45548 -0.016,13.45654 0,0.27729 0.22265,0.50333 0.49816,0.50333 h 6.02599 c 0.27517,0 0.49539,-0.22604 0.4961,-0.50333 v -31.46009 c 0,-0.27764 -0.22006,-0.50178 -0.49558,-0.50178 h -6.01204 c -0.27481,0 -0.49764,0.22414 -0.49764,0.50178 l 10e-4,11.61893 h -9.37101 v -11.61893 c 0,-0.27764 -0.22144,-0.50178 -0.49661,-0.50178 z m 49.8197,0 c -0.27411,0 -0.49713,0.22414 -0.49713,0.50178 v 31.46009 c 0,0.27764 0.22283,0.50333 0.49765,0.50333 h 4.1832 c 0.18839,0 0.33119,-0.0971 0.43667,-0.26717 0.10407,-0.16898 0.25373,-1.45055 0.25373,-1.45055 0,0 2.46497,2.33629 7.13187,2.33629 5.47934,0 8.62169,-2.77909 8.62169,-12.47624 0,-9.69716 -5.0184,-10.96419 -8.4093,-10.96419 -3.38844,0 -5.6932,1.51153 -5.6932,1.51153 v -10.65309 c 0,-0.27764 -0.22233,-0.50178 -0.49609,-0.50178 z m -74.49571,0.71624 c -2.13924,0 -3.87625,1.74932 -3.87625,3.91397 0,2.16253 1.73701,3.91707 3.87625,3.91707 2.14136,0 3.87677,-1.75454 3.87677,-3.91707 0,-2.16465 -1.73541,-3.91397 -3.87677,-3.91397 z m 9.68675,3.28713 c -0.23883,0 -0.36691,0.10521 -0.36691,0.33487 v 6.15673 c 0,0 -3.08003,0.74324 -3.28817,0.80356 -0.20743,0.06 -0.36018,0.25131 -0.36018,0.47956 v 3.86902 c 0,0.27798 0.22231,0.50281 0.49712,0.50281 h 3.15123 v 9.30744 c 0,6.91303 4.84894,7.5923 8.12096,7.5923 1.49542,0 3.28435,-0.4801 3.57962,-0.58911 0.17851,-0.0656 0.28267,-0.25076 0.28267,-0.45114 l 0.005,-4.25607 c 0,-0.27763 -0.23429,-0.50229 -0.49816,-0.50229 -0.26282,0 -0.93566,0.10697 -1.62781,0.10697 -2.21509,0 -2.96571,-1.03002 -2.96571,-2.36316 0,-1.33244 0,-8.84494 0,-8.84494 h 4.5098 c 0.27482,0 0.49816,-0.22483 0.49816,-0.50281 v -4.84622 c 0,-0.27764 -0.22334,-0.50126 -0.49816,-0.50126 h -4.5098 c 0,0 -0.007,-5.95636 -0.007,-5.95778 0,-0.22542 -0.11618,-0.33848 -0.37724,-0.33848 z m -12.72997,6.29936 c -0.27517,0 -0.52142,0.28327 -0.52142,0.55914 v 20.80545 c 0,0.61101 0.38118,0.79323 0.87436,0.79323 h 5.39967 c 0.59232,0 0.73743,-0.29117 0.73743,-0.80305 v -6.33191 -14.52211 c 0,-0.27553 -0.22196,-0.50075 -0.49713,-0.50075 z m 54.04889,0.047 c -0.27305,0 -0.49712,0.2257 -0.49712,0.50333 v 14.47044 c 0,6.25651 3.48701,7.78712 8.28373,7.78712 3.93559,0 7.10809,-2.17403 7.10809,-2.17403 0,0 0.15083,1.14576 0.21962,1.28158 0.0681,0.13546 0.24612,0.27233 0.43874,0.27233 l 3.85196,-0.017 c 0.27305,0 0.49713,-0.22571 0.49713,-0.50229 l -0.002,-21.11809 c 0,-0.27764 -0.22283,-0.50333 -0.49764,-0.50333 h -5.96605 c -0.27375,0 -0.49609,0.22569 -0.49609,0.50333 v 15.42541 c 0,0 -1.51624,1.10898 -3.66748,1.10898 -2.15124,0 -2.72179,-0.97606 -2.72179,-3.0825 v -13.45191 c 0,-0.27763 -0.22234,-0.50333 -0.4961,-0.50333 z m 33.36747,5.02812 c 1.99767,-0.0684 3.81683,0.80206 3.81683,5.6069 0,5.4042 -0.93434,6.47107 -3.82923,6.38358 -2.06939,-0.0631 -3.47265,-1.002 -3.47265,-1.002 v -9.9627 c 0,0 1.38455,-0.84876 3.08353,-1.00046 0.13427,-0.012 0.26834,-0.0208 0.40152,-0.0253 z"
         style="fill:#0f0e0f;fill-opacity:1;fill-rule:nonzero;stroke:none;stroke-width:0.35277775" />
      <path
         inkscape:connector-curvature="0"
         style="fill:#1b1817;fill-opacity:1;fill-rule:evenodd;stroke:none;stroke-width:0.35277778"
         d="m -275.87649,220.01478 c -11.76409,0 -21.30362,9.53741 -21.30362,21.30361 0,9.41211 6.10407,17.39786 14.56862,20.21478 1.06469,0.1972 1.45574,-0.46257 1.45574,-1.02526 0,-0.50765 -0.0198,-2.18605 -0.0289,-3.96616 -5.92667,1.28869 -7.17733,-2.51354 -7.17733,-2.51354 -0.96909,-2.46204 -2.36524,-3.11712 -2.36524,-3.11712 -1.93286,-1.32221 0.14573,-1.29502 0.14573,-1.29502 2.13924,0.15029 3.26544,2.19573 3.26544,2.19573 1.90005,3.2565 4.98342,2.31478 6.1991,1.77044 0.19156,-1.37653 0.74364,-2.31641 1.35287,-2.8484 -4.73181,-0.53834 -9.70584,-2.36564 -9.70584,-10.52856 0,-2.32551 0.8319,-4.2261 2.19469,-5.718 -0.22119,-0.53657 -0.95041,-2.70349 0.20669,-5.6379 0,0 1.7889,-0.57189 5.8596,2.18436 1.69934,-0.47201 3.52203,-0.7088 5.33249,-0.71726 1.81046,0.008 3.63413,0.24525 5.33662,0.71726 4.06612,-2.75625 5.85287,-2.18436 5.85287,-2.18436 1.15959,2.93441 0.42998,5.10133 0.20879,5.6379 1.36596,1.4919 2.19262,3.39249 2.19262,5.718 0,8.18268 -4.98377,9.9841 -9.72756,10.5115 0.76412,0.66111 1.44486,1.95743 1.44486,3.94498 0,2.85045 -0.0243,5.14447 -0.0243,5.84615 0,0.56727 0.38312,1.23152 1.46296,1.02268 8.46032,-2.82011 14.55674,-10.80291 14.55674,-20.2122 0,-11.7662 -9.53812,-21.30361 -21.30361,-21.30361 z m -13.54026,30.2302 c -0.11415,-0.017 -0.2162,0.0203 -0.25062,0.1018 -0.0501,0.10619 0.0363,0.25049 0.19119,0.32039 0.15169,0.0726 0.31795,0.0411 0.36483,-0.0651 0.0533,-0.10619 -0.0346,-0.25193 -0.18912,-0.32143 -0.0386,-0.0182 -0.0782,-0.03 -0.11628,-0.0356 z m 0.76377,0.73277 c -0.0349,0.007 -0.0668,0.0219 -0.093,0.0455 -0.10298,0.0952 -0.0772,0.29435 0.0625,0.44287 0.13441,0.1488 0.33351,0.19239 0.43511,0.0982 0.10617,-0.0956 0.0792,-0.29258 -0.0605,-0.44287 -0.10451,-0.11138 -0.23924,-0.16404 -0.34417,-0.14366 z m 0.88265,1.0852 c -0.0404,0.002 -0.0781,0.014 -0.1111,0.0367 -0.13354,0.091 -0.13364,0.31818 -0.003,0.50798 0.13195,0.18944 0.34542,0.27445 0.47596,0.18345 0.13317,-0.0928 0.13327,-0.32001 0.003,-0.51263 -0.10028,-0.14088 -0.24368,-0.22201 -0.36484,-0.21549 z m 1.02216,1.21078 c -0.071,0.003 -0.13385,0.0286 -0.1783,0.077 -0.11676,0.12877 -0.0648,0.3727 0.12144,0.54415 0.18204,0.176 0.43048,0.21041 0.54727,0.0817 0.12417,-0.12735 0.0681,-0.3727 -0.11679,-0.54415 -0.11467,-0.10894 -0.2553,-0.16421 -0.37362,-0.15865 z m 1.55028,0.92604 c -0.17256,-0.002 -0.31692,0.074 -0.35449,0.19999 -0.0487,0.16863 0.1089,0.36367 0.34986,0.43667 0.2413,0.0709 0.48035,-0.005 0.53226,-0.17157 0.0501,-0.16969 -0.10771,-0.36345 -0.3483,-0.43615 -0.0608,-0.019 -0.12181,-0.0283 -0.17933,-0.0289 z m 3.56568,0.0765 c -0.057,-0.006 -0.11843,-0.004 -0.18137,0.007 -0.24731,0.0455 -0.42656,0.22172 -0.39584,0.3974 0.0314,0.16966 0.26066,0.27546 0.50797,0.22996 0.25151,-0.0469 0.42717,-0.22268 0.39687,-0.39378 -0.0241,-0.13068 -0.15647,-0.22159 -0.32763,-0.24029 z m -1.75546,0.20516 c -0.25434,0.005 -0.45474,0.14863 -0.45474,0.32608 0.003,0.17286 0.20934,0.31554 0.46406,0.30954 0.25328,-0.003 0.45765,-0.14885 0.45164,-0.32453 0,-0.17427 -0.20765,-0.31609 -0.46096,-0.31109 z"
         id="path4618" />
      <path
         inkscape:connector-curvature="0"
         id="path4514"
         d="m -474.34815,238.87262 v 5.27564 c -0.74788,-0.90956 -1.81887,-1.41489 -3.11248,-1.41489 -3.0117,0 -4.99297,2.20295 -4.99297,5.57847 0,3.45636 2.02141,5.70042 5.09374,5.70042 1.25319,0 2.28405,-0.50538 3.01171,-1.39474 v 1.25315 h 4.08295 v -14.99805 z m 12.8204,0 v 14.99805 h 4.08295 v -1.27331 c 0.74788,0.90958 1.81937,1.4149 3.11299,1.4149 3.0319,0 4.99246,-2.20346 4.99246,-5.57899 0,-3.43616 -2.0214,-5.69991 -5.09374,-5.6999 -1.23297,0 -2.28404,0.50533 -3.01171,1.41489 v -5.27564 z m -33.81602,3.84059 c -1.49575,0 -2.68804,0.68738 -3.45612,1.90014 v -1.73839 h -4.08296 v 10.99571 h 4.08296 v -5.2555 c 0,-1.5968 1.35399,-2.48587 3.45612,-2.22311 z m -58.29722,0.0202 c -1.23297,0 -2.28404,0.50533 -3.0117,1.4149 V 242.875 h -4.08296 v 14.91692 h 4.08296 v -5.19451 c 0.74787,0.90958 1.81936,1.4149 3.11298,1.4149 3.0319,0 4.99246,-2.20346 4.99246,-5.57899 0,-3.43616 -2.0214,-5.69991 -5.09374,-5.69991 z m 11.97601,0 c -3.69893,0 -6.12417,2.2235 -6.12417,5.63945 0,3.39573 2.42524,5.63945 6.12417,5.63945 3.69892,0 6.10454,-2.24372 6.10454,-5.63945 0,-3.41595 -2.40562,-5.63945 -6.10454,-5.63945 z m 31.41669,0 c -3.47659,0 -5.80068,2.2436 -5.80068,5.67976 0,3.37552 2.2434,5.59914 5.92212,5.59914 2.0819,0 3.73957,-0.70788 4.89169,-1.98128 l -2.12235,-2.08152 c -0.72766,0.66702 -1.55654,1.0511 -2.42569,1.0511 -1.05106,0 -1.8191,-0.58657 -2.14251,-1.63763 h 7.398 c 0.24255,-4.04254 -1.85995,-6.62957 -5.72058,-6.62957 z m 21.2788,0 c -3.47658,0 -5.80119,2.2436 -5.80119,5.67976 0,3.37552 2.24392,5.59914 5.92263,5.59914 2.08191,0 3.73905,-0.70788 4.89118,-1.98128 l -2.12235,-2.08152 c -0.72766,0.66702 -1.55604,1.0511 -2.42518,1.0511 -1.05107,0 -1.8191,-0.58657 -2.1425,-1.63763 h 7.39748 c 0.24255,-4.04254 -1.85944,-6.62957 -5.72007,-6.62957 z m -46.69327,0.14159 4.00234,10.99571 h 4.02198 l 1.85983,-6.30659 1.81901,6.30659 h 4.02249 l 4.00183,-10.99571 h -3.96152 l -1.94045,7.01353 -1.9606,-7.01353 h -3.84059 l -1.89963,7.01353 -1.98127,-7.01353 z m 86.07847,0 4.54804,10.69237 -0.20257,0.38396 c -0.24256,0.4851 -0.64644,0.70745 -1.19218,0.70745 -0.54575,0 -0.97056,-0.18164 -1.47588,-0.62632 l -1.69757,2.72852 c 1.09149,0.82872 2.18301,1.21284 3.53726,1.21284 2.20319,0 3.69852,-1.01069 4.56768,-3.17345 l 4.6085,-11.92537 h -4.06229 l -2.04173,6.73086 -2.40554,-6.73086 z m -60.62318,2.62775 c 0.99043,0 1.67748,0.76783 1.65727,1.85932 h -3.45612 c 0.20213,-1.1117 0.82864,-1.85932 1.79885,-1.85932 z m 21.27829,0 c 0.99042,0 1.67799,0.76783 1.65778,1.85932 h -3.45664 c 0.20212,-1.1117 0.82865,-1.85932 1.79886,-1.85932 z m -65.74276,0.38395 c 1.21277,0 2.00091,0.99054 2.00091,2.44585 0,1.45532 -0.78814,2.44533 -2.00091,2.44533 -1.17233,0 -1.98075,-0.99001 -1.98075,-2.44533 0,-1.45531 0.80842,-2.44585 1.98075,-2.44585 z m 99.20842,0 c 1.21277,0 2.00091,0.99054 2.00091,2.44585 0,1.45532 -0.78814,2.44533 -2.00091,2.44533 -1.17233,0 -1.98128,-0.99001 -1.98128,-2.44533 0,-1.45531 0.80895,-2.44585 1.98128,-2.44585 z m -86.20146,0.0806 c 1.19255,0 1.98076,0.99054 1.98076,2.44585 0,1.47553 -0.78821,2.44584 -1.98076,2.44584 -1.21277,0 -2.00091,-0.97031 -2.00091,-2.44584 0,-1.45531 0.78814,-2.44585 2.00091,-2.44585 z m 65.33607,0 c 1.19255,0 1.98076,0.99054 1.98076,2.44585 0,1.47553 -0.78821,2.46599 -1.98076,2.46599 -1.21276,0 -2.00091,-0.99046 -2.00091,-2.46599 0,-1.45531 0.78815,-2.44585 2.00091,-2.44585 z"
         style="font-style:normal;font-variant:normal;font-weight:normal;font-stretch:normal;font-size:medium;line-height:0px;font-family:Montserrat;-inkscape-font-specification:Montserrat;text-align:center;letter-spacing:0px;word-spacing:0px;text-anchor:middle;fill:#0f0e0f;fill-opacity:1;stroke:none;stroke-width:0.26458338px;stroke-linecap:butt;stroke-linejoin:miter;stroke-opacity:1" />
    </g>
  </g>
</svg>
