<?xml version="1.0" encoding="UTF-8" standalone="no"?>
<!-- Created with Inkscape (http://www.inkscape.org/) -->

<svg
   xmlns:dc="http://purl.org/dc/elements/1.1/"
   xmlns:cc="http://creativecommons.org/ns#"
   xmlns:rdf="http://www.w3.org/1999/02/22-rdf-syntax-ns#"
   xmlns:svg="http://www.w3.org/2000/svg"
   xmlns="http://www.w3.org/2000/svg"
   xmlns:sodipodi="http://sodipodi.sourceforge.net/DTD/sodipodi-0.dtd"
   xmlns:inkscape="http://www.inkscape.org/namespaces/inkscape"
   width="2095.7661"
   height="410.42758"
   viewBox="0 0 554.50478 108.5923"
   version="1.1"
   id="svg8"
   inkscape:version="0.92.1 r15371"
   sodipodi:docname="byFenixC4.svg"
   inkscape:export-filename="C:\Users\User\Pictures\Steam Logo v2.png"
   inkscape:export-xdpi="258.6301"
   inkscape:export-ydpi="258.6301">
  <defs
     id="defs2">
    <clipPath
       id="clipPath4500"
       clipPathUnits="userSpaceOnUse">
      <path
         id="path4498"
         d="M 0,576 H 576 V 0 H 0 Z"
         inkscape:connector-curvature="0" />
    </clipPath>
    <clipPath
       id="clipPath4610"
       clipPathUnits="userSpaceOnUse">
      <path
         id="path4608"
         d="M 0,551.986 H 530.973 V 0 H 0 Z"
         inkscape:connector-curvature="0" />
    </clipPath>
  </defs>
  <sodipodi:namedview
     id="base"
     pagecolor="#ffffff"
     bordercolor="#666666"
     borderopacity="1.0"
     inkscape:pageopacity="0.0"
     inkscape:pageshadow="2"
     inkscape:zoom="0.50975329"
     inkscape:cx="1168.5777"
     inkscape:cy="291.0947"
     inkscape:document-units="px"
     inkscape:current-layer="layer1"
     showgrid="false"
     inkscape:showpageshadow="false"
     units="px"
     inkscape:window-width="2560"
     inkscape:window-height="1027"
     inkscape:window-x="-8"
     inkscape:window-y="22"
     inkscape:window-maximized="1"
     showborder="true"
     inkscape:pagecheckerboard="false"
     showguides="false" />
  <metadata
     id="metadata5">
    <rdf:RDF>
      <cc:Work
         rdf:about="">
        <dc:format>image/svg+xml</dc:format>
        <dc:type
           rdf:resource="http://purl.org/dc/dcmitype/StillImage" />
        <dc:title />
      </cc:Work>
    </rdf:RDF>
  </metadata>
  <g
     inkscape:label="Layer 1"
     inkscape:groupmode="layer"
     id="layer1"
     transform="translate(560.73565,-152.9776)">
    <g
       id="g4495"
       transform="matrix(0.59910292,0,0,0.59910292,-99.142843,104.86261)"
       style="stroke-width:1.66916215">
      <path
         sodipodi:nodetypes="cccccccccccccccccczcccccccccccccccccccccccsccc"
         inkscape:connector-curvature="0"
         id="path4482"
         d="m 83.638006,80.311731 c -12.959588,0.02619 -25.66801,3.576774 -36.764462,10.271575 H 66.469156 V 107.75736 H 46.873544 v 22.01804 h 19.595612 v 17.17404 H 46.873544 v 65.97029 c 11.094969,6.69995 23.803489,10.25566 36.764462,10.28628 1.190332,-0.0299 2.379732,-0.0896 3.567082,-0.17896 -10.525842,-11.4466 -17.959425,-39.34668 -17.960771,-71.95376 9.35e-4,-31.44754 6.914903,-58.520203 16.848975,-70.674239 -0.817868,-0.04317 -1.636418,-0.07229 -2.455286,-0.08732 z m 32.858504,8.031556 v 10.634679 l -1.29681,-0.09423 C 86.236696,95.332705 84.463962,125.37118 84.463962,151.07329 c 0,25.70211 -0.05828,60.02204 30.735738,52.18956 l 1.29681,-0.0942 v 11.96521 c 4.5936,-2.39867 8.91259,-5.28999 12.88075,-8.6229 V 190.52907 H 95.226271 V 172.77924 L 123.99637,92.921879 c -2.40365,-1.678627 -4.90833,-3.207716 -7.49986,-4.578592 z M 27.451699,107.75736 c -9.858735,12.55098 -15.231241,28.04153 -15.26082,44.00151 0.0064,15.99555 5.380165,31.52629 15.26082,44.10526 V 146.94944 129.7754 Z M 149.623,124.45331 v 48.32593 h 2.25558 c 2.11137,-6.80762 3.19219,-13.89286 3.20657,-21.02037 -0.0122,-9.372 -1.86816,-18.65005 -5.46215,-27.30556 z m -21.47253,1.24061 -1.22677,4.11088 -12.88335,42.97444 h 15.33691 v -42.97444 -4.11088 z"
         style="opacity:1;vector-effect:none;fill:#0066ff;fill-opacity:1;fill-rule:evenodd;stroke:none;stroke-width:0.19873467;stroke-linecap:round;stroke-linejoin:miter;stroke-miterlimit:4;stroke-dasharray:none;stroke-dashoffset:0;stroke-opacity:1" />
      <text
         y="258.56"
         x="82.956787"
         id="text4527"
         style="font-style:normal;font-variant:normal;font-weight:normal;font-stretch:normal;font-size:40.05385971px;line-height:75.1009903px;font-family:'Ink Free';-inkscape-font-specification:'Ink Free';text-align:center;letter-spacing:7.25993252px;word-spacing:0px;text-anchor:middle;fill:#0066ff;fill-opacity:1;stroke:none;stroke-width:0.44163257px;stroke-linecap:butt;stroke-linejoin:miter;stroke-opacity:1"
         xml:space="preserve"><tspan
           style="font-style:normal;font-variant:normal;font-weight:normal;font-stretch:normal;font-family:'League Gothic';-inkscape-font-specification:'League Gothic';letter-spacing:7.25993252px;fill:#0066ff;fill-opacity:1;stroke-width:0.44163257px"
           id="tspan4525">FenixC4</tspan></text>
      <text
         id="text4488"
         y="253.03534"
         x="-127.39238"
         style="font-style:normal;font-variant:normal;font-weight:normal;font-stretch:normal;font-size:42.04219818px;line-height:78.82913208px;font-family:'Ink Free';-inkscape-font-specification:'Ink Free';text-align:center;letter-spacing:0px;word-spacing:0px;text-anchor:middle;fill:#0066ff;fill-opacity:1;stroke:none;stroke-width:0.44163248px;stroke-linecap:butt;stroke-linejoin:miter;stroke-opacity:1"
         xml:space="preserve"><tspan
           style="font-style:normal;font-variant:normal;font-weight:normal;font-stretch:normal;font-family:Montserrat;-inkscape-font-specification:Montserrat;fill:#0066ff;fill-opacity:1;stroke-width:0.44163248px"
           y="253.03534"
           x="-127.39237"
           id="tspan4486"
           sodipodi:role="line">created by</tspan></text>
    </g>
    <g
       id="layer1-3"
       transform="translate(-709.01098,144.09435)">
      <g
         id="g5825">
        <path
           style="fill:#0f0e0f;fill-opacity:1;fill-rule:nonzero;stroke:none;stroke-width:0.35277775"
           d="m 292.88319,79.516614 c -7.12787,0 -14.43995,3.03279 -14.43995,17.61133 0,14.578896 8.37144,16.751426 15.42594,16.751426 5.84094,0 9.38392,-2.49597 9.38392,-2.49597 0.14605,-0.0804 0.16227,-0.28478 0.16227,-0.37827 V 94.723444 c 0,-0.27552 -0.22368,-0.4992 -0.4992,-0.4992 h -10.67738 c -0.27552,0 -0.4992,0.22368 -0.4992,0.4992 v 5.22035 c 0,0.275516 0.22368,0.499706 0.4992,0.499706 h 4.16512 v 6.48591 c 0,0 -0.93486,0.31885 -3.52072,0.31885 -3.05047,0 -7.31221,-1.11448 -7.31221,-10.485666 0,-9.37295 4.43765,-10.60659 8.60361,-10.60659 3.60609,0 5.15946,0.63517 6.14794,0.94103 0.3108,0.0949 0.59841,-0.21386 0.59841,-0.48938 l 1.19115,-5.04413 c 0,-0.12912 -0.0439,-0.28416 -0.19069,-0.38964 -0.40146,-0.28646 -2.85049,-1.65727 -9.03821,-1.65727 z m 42.17727,1.24489 c -0.2734,0 -0.49609,0.22414 -0.49609,0.50178 v 31.460086 c 0,0.27729 0.22269,0.50333 0.49609,0.50333 h 6.01152 c 0.27517,0 0.49661,-0.22604 0.49661,-0.50333 V 99.266834 h 9.37101 c 0,0 -0.016,13.455476 -0.016,13.456536 0,0.27729 0.22265,0.50333 0.49816,0.50333 h 6.02599 c 0.27517,0 0.49539,-0.22604 0.4961,-0.50333 V 81.263284 c 0,-0.27764 -0.22006,-0.50178 -0.49558,-0.50178 h -6.01204 c -0.27481,0 -0.49764,0.22414 -0.49764,0.50178 l 0.001,11.61893 h -9.37101 v -11.61893 c 0,-0.27764 -0.22144,-0.50178 -0.49661,-0.50178 z m 49.8197,0 c -0.27411,0 -0.49713,0.22414 -0.49713,0.50178 v 31.460086 c 0,0.27764 0.22283,0.50333 0.49765,0.50333 h 4.1832 c 0.18839,0 0.33119,-0.0971 0.43667,-0.26717 0.10407,-0.16898 0.25373,-1.45055 0.25373,-1.45055 0,0 2.46497,2.33629 7.13187,2.33629 5.47934,0 8.62169,-2.77909 8.62169,-12.47624 0,-9.697156 -5.0184,-10.964186 -8.4093,-10.964186 -3.38844,0 -5.6932,1.51153 -5.6932,1.51153 v -10.65309 c 0,-0.27764 -0.22233,-0.50178 -0.49609,-0.50178 z m -74.49571,0.71624 c -2.13924,0 -3.87625,1.74932 -3.87625,3.91397 0,2.16253 1.73701,3.91707 3.87625,3.91707 2.14136,0 3.87677,-1.75454 3.87677,-3.91707 0,-2.16465 -1.73541,-3.91397 -3.87677,-3.91397 z m 9.68675,3.28713 c -0.23883,0 -0.36691,0.10521 -0.36691,0.33487 v 6.15673 c 0,0 -3.08003,0.74324 -3.28817,0.80356 -0.20743,0.06 -0.36018,0.25131 -0.36018,0.47956 v 3.86902 c 0,0.27798 0.22231,0.50281 0.49712,0.50281 h 3.15123 v 9.307436 c 0,6.91303 4.84894,7.5923 8.12096,7.5923 1.49542,0 3.28435,-0.4801 3.57962,-0.58911 0.17851,-0.0656 0.28267,-0.25076 0.28267,-0.45114 l 0.005,-4.25607 c 0,-0.27763 -0.23429,-0.50229 -0.49816,-0.50229 -0.26282,0 -0.93566,0.10697 -1.62781,0.10697 -2.21509,0 -2.96571,-1.03002 -2.96571,-2.36316 0,-1.33244 0,-8.844936 0,-8.844936 h 4.5098 c 0.27482,0 0.49816,-0.22483 0.49816,-0.50281 v -4.84622 c 0,-0.27764 -0.22334,-0.50126 -0.49816,-0.50126 h -4.5098 c 0,0 -0.007,-5.95636 -0.007,-5.95778 0,-0.22542 -0.11618,-0.33848 -0.37724,-0.33848 z m -12.72997,6.29936 c -0.27517,0 -0.52142,0.28327 -0.52142,0.55914 v 20.805446 c 0,0.61101 0.38118,0.79323 0.87436,0.79323 h 5.39967 c 0.59232,0 0.73743,-0.29117 0.73743,-0.80305 v -6.33191 -14.522106 c 0,-0.27553 -0.22196,-0.50075 -0.49713,-0.50075 z m 54.04889,0.047 c -0.27305,0 -0.49712,0.2257 -0.49712,0.50333 V 106.085 c 0,6.25651 3.48701,7.78712 8.28373,7.78712 3.93559,0 7.10809,-2.17403 7.10809,-2.17403 0,0 0.15083,1.14576 0.21962,1.28158 0.0681,0.13546 0.24612,0.27233 0.43874,0.27233 l 3.85196,-0.017 c 0.27305,0 0.49713,-0.22571 0.49713,-0.50229 l -0.002,-21.118086 c 0,-0.27764 -0.22283,-0.50333 -0.49764,-0.50333 h -5.96605 c -0.27375,0 -0.49609,0.22569 -0.49609,0.50333 v 15.425406 c 0,0 -1.51624,1.10898 -3.66748,1.10898 -2.15124,0 -2.72179,-0.97606 -2.72179,-3.0825 V 91.614604 c 0,-0.27763 -0.22234,-0.50333 -0.4961,-0.50333 z m 33.36747,5.02812 c 1.99767,-0.0684 3.81683,0.80206 3.81683,5.606896 0,5.4042 -0.93434,6.47107 -3.82923,6.38358 -2.06939,-0.0631 -3.47265,-1.002 -3.47265,-1.002 v -9.962696 c 0,0 1.38455,-0.84876 3.08353,-1.00046 0.13427,-0.012 0.26834,-0.0208 0.40152,-0.0253 z"
           id="path4532"
           inkscape:connector-curvature="0" />
        <path
           id="path4618"
           d="m 433.13449,75.92043 c -11.76409,0 -21.30362,9.537411 -21.30362,21.303609 0,9.412111 6.10407,17.397861 14.56862,20.214781 1.06469,0.1972 1.45574,-0.46257 1.45574,-1.02526 0,-0.50765 -0.0198,-2.18605 -0.0289,-3.96616 -5.92667,1.28869 -7.17733,-2.51354 -7.17733,-2.51354 -0.96909,-2.46204 -2.36524,-3.11712 -2.36524,-3.11712 -1.93286,-1.32221 0.14573,-1.29502 0.14573,-1.29502 2.13924,0.15029 3.26544,2.19573 3.26544,2.19573 1.90005,3.2565 4.98342,2.31478 6.1991,1.77044 0.19156,-1.37653 0.74364,-2.31641 1.35287,-2.8484 -4.73181,-0.53834 -9.70584,-2.36564 -9.70584,-10.528561 0,-2.325513 0.8319,-4.226102 2.19469,-5.717998 -0.22119,-0.536575 -0.95041,-2.703493 0.20669,-5.6379 0,0 1.7889,-0.571889 5.8596,2.184363 1.69934,-0.472017 3.52203,-0.708803 5.33249,-0.717267 1.81046,0.0085 3.63413,0.24525 5.33662,0.717267 4.06612,-2.756252 5.85287,-2.184363 5.85287,-2.184363 1.15959,2.934407 0.42998,5.101325 0.20879,5.6379 1.36596,1.491896 2.19262,3.392485 2.19262,5.717998 0,8.182681 -4.98377,9.984101 -9.72756,10.511501 0.76412,0.66111 1.44486,1.95743 1.44486,3.94498 0,2.85045 -0.0243,5.14447 -0.0243,5.84615 0,0.56727 0.38312,1.23152 1.46296,1.02268 8.46032,-2.82011 14.55674,-10.80291 14.55674,-20.212201 0,-11.766198 -9.53812,-21.303609 -21.30361,-21.303609 z m -13.54026,30.2302 c -0.11415,-0.017 -0.2162,0.0203 -0.25062,0.1018 -0.0501,0.10619 0.0363,0.25049 0.19119,0.32039 0.15169,0.0726 0.31795,0.0411 0.36483,-0.0651 0.0533,-0.10619 -0.0346,-0.25193 -0.18912,-0.32143 -0.0386,-0.0182 -0.0782,-0.03 -0.11628,-0.0356 z m 0.76377,0.73277 c -0.0349,0.007 -0.0668,0.0219 -0.093,0.0455 -0.10298,0.0952 -0.0772,0.29435 0.0625,0.44287 0.13441,0.1488 0.33351,0.19239 0.43511,0.0982 0.10617,-0.0956 0.0792,-0.29258 -0.0605,-0.44287 -0.10451,-0.11138 -0.23924,-0.16404 -0.34417,-0.14366 z m 0.88265,1.0852 c -0.0404,0.002 -0.0781,0.014 -0.1111,0.0367 -0.13354,0.091 -0.13364,0.31818 -0.003,0.50798 0.13195,0.18944 0.34542,0.27445 0.47596,0.18345 0.13317,-0.0928 0.13327,-0.32001 0.003,-0.51263 -0.10028,-0.14088 -0.24368,-0.22201 -0.36484,-0.21549 z m 1.02216,1.21078 c -0.071,0.003 -0.13385,0.0286 -0.1783,0.077 -0.11676,0.12877 -0.0648,0.3727 0.12144,0.54415 0.18204,0.176 0.43048,0.21041 0.54727,0.0817 0.12417,-0.12735 0.0681,-0.3727 -0.11679,-0.54415 -0.11467,-0.10894 -0.2553,-0.16421 -0.37362,-0.15865 z m 1.55028,0.92604 c -0.17256,-0.002 -0.31692,0.074 -0.35449,0.19999 -0.0487,0.16863 0.1089,0.36367 0.34986,0.43667 0.2413,0.0709 0.48035,-0.005 0.53226,-0.17157 0.0501,-0.16969 -0.10771,-0.36345 -0.3483,-0.43615 -0.0608,-0.019 -0.12181,-0.0283 -0.17933,-0.0289 z m 3.56568,0.0765 c -0.057,-0.006 -0.11843,-0.004 -0.18137,0.007 -0.24731,0.0455 -0.42656,0.22172 -0.39584,0.3974 0.0314,0.16966 0.26066,0.27546 0.50797,0.22996 0.25151,-0.0469 0.42717,-0.22268 0.39687,-0.39378 -0.0241,-0.13068 -0.15647,-0.22159 -0.32763,-0.24029 z m -1.75546,0.20516 c -0.25434,0.005 -0.45474,0.14863 -0.45474,0.32608 0.003,0.17286 0.20934,0.31554 0.46406,0.30954 0.25328,-0.003 0.45765,-0.14885 0.45164,-0.32453 0,-0.17427 -0.20765,-0.31609 -0.46096,-0.31109 z"
           style="fill:#1b1817;fill-opacity:1;fill-rule:evenodd;stroke:none;stroke-width:0.35277778"
           inkscape:connector-curvature="0" />
        <text
           id="text5819"
           y="109.77619"
           x="209.45464"
           style="font-style:normal;font-variant:normal;font-weight:normal;font-stretch:normal;font-size:20.21271324px;line-height:37.89883423px;font-family:'Ink Free';-inkscape-font-specification:'Ink Free';text-align:center;letter-spacing:0px;word-spacing:0px;text-anchor:middle;fill:#0f0e0f;fill-opacity:1;stroke:none;stroke-width:0.26458338px;stroke-linecap:butt;stroke-linejoin:miter;stroke-opacity:1"
           xml:space="preserve"><tspan
             style="font-style:normal;font-variant:normal;font-weight:normal;font-stretch:normal;line-height:0px;font-family:Montserrat;-inkscape-font-specification:Montserrat;fill:#0f0e0f;fill-opacity:1;stroke-width:0.26458338px"
             y="109.77619"
             x="209.45464"
             id="tspan5817">powered by</tspan></text>
      </g>
    </g>
  </g>
</svg>
