<?xml version="1.0" encoding="UTF-8" standalone="no"?>
<svg
   xmlns:dc="http://purl.org/dc/elements/1.1/"
   xmlns:cc="http://creativecommons.org/ns#"
   xmlns:rdf="http://www.w3.org/1999/02/22-rdf-syntax-ns#"
   xmlns:svg="http://www.w3.org/2000/svg"
   xmlns="http://www.w3.org/2000/svg"
   id="svg8"
   version="1.1"
   viewBox="0 0 93.357607 36.694402"
   height="138.6875"
   width="352.84766">
  <defs
     id="defs2" />
  <metadata
     id="metadata5">
    <rdf:RDF>
      <cc:Work
         rdf:about="">
        <dc:format>image/svg+xml</dc:format>
        <dc:type
           rdf:resource="http://purl.org/dc/dcmitype/StillImage" />
        <dc:title></dc:title>
      </cc:Work>
    </rdf:RDF>
  </metadata>
  <g
     transform="translate(-35.261412,-106.67928)"
     id="layer1">
    <path
       id="rect4490"
       transform="scale(0.26458333)"
       d="m 153.64453,403.19727 c -11.28616,0 -20.37305,9.08688 -20.37305,20.37304 v 97.94141 c 0,11.28616 9.08689,20.37305 20.37305,20.37305 h 312.10156 c 11.28617,0 20.37305,-9.08689 20.37305,-20.37305 v -97.94141 c 0,-11.28616 -9.08688,-20.37304 -20.37305,-20.37304 z m 82.56836,40.83398 c 0.92361,0 1.78776,0.1823 2.58984,0.54687 0.8264,0.34026 1.54278,0.81423 2.15039,1.42188 0.60764,0.58333 1.0816,1.2869 1.42188,2.11328 0.36458,0.80209 0.54688,1.65343 0.54688,2.55274 -10e-6,0.92361 -0.1823,1.78579 -0.54688,2.58789 -0.34028,0.80206 -0.81424,1.50758 -1.42188,2.11523 -0.60761,0.58333 -1.32399,1.0573 -2.15039,1.42188 -0.80208,0.34028 -1.66623,0.50976 -2.58984,0.50976 -0.92361,0 -1.79861,-0.16948 -2.625,-0.50976 -0.80208,-0.36458 -1.50564,-0.83855 -2.11328,-1.42188 -0.58334,-0.60765 -1.05729,-1.31317 -1.42188,-2.11523 -0.34027,-0.8021 -0.51171,-1.66428 -0.51171,-2.58789 0,-0.89931 0.17144,-1.75065 0.51171,-2.55274 0.36459,-0.82638 0.83854,-1.52995 1.42188,-2.11328 0.60764,-0.60765 1.3112,-1.08162 2.11328,-1.42188 0.82639,-0.36457 1.70139,-0.54687 2.625,-0.54687 z m 138.98047,0 c 0.92361,0 1.78581,0.1823 2.58789,0.54687 0.82639,0.34026 1.54274,0.81423 2.15039,1.42188 0.60762,0.58333 1.08159,1.2869 1.42188,2.11328 0.36459,0.80209 0.54687,1.65343 0.54687,2.55274 0,0.92361 -0.18228,1.78579 -0.54687,2.58789 -0.34029,0.80206 -0.81426,1.50758 -1.42188,2.11523 -0.60765,0.58333 -1.324,1.0573 -2.15039,1.42188 -0.80208,0.34028 -1.66428,0.50976 -2.58789,0.50976 -0.92361,0 -1.79861,-0.16948 -2.625,-0.50976 -0.80208,-0.36458 -1.5076,-0.83855 -2.11524,-1.42188 -0.58331,-0.60765 -1.05729,-1.31317 -1.42187,-2.11523 -0.34028,-0.8021 -0.50977,-1.66428 -0.50977,-2.58789 0,-0.89931 0.16949,-1.75065 0.50977,-2.55274 0.36458,-0.82638 0.83856,-1.52995 1.42187,-2.11328 0.60764,-0.60765 1.31316,-1.08162 2.11524,-1.42188 0.82639,-0.36457 1.70139,-0.54687 2.625,-0.54687 z m 56.72852,0 c 0.92359,0 1.78579,0.1823 2.58789,0.54687 0.82638,0.34026 1.54469,0.81423 2.15234,1.42188 0.60762,0.58333 1.08159,1.2869 1.42187,2.11328 0.3646,0.80209 0.54688,1.65343 0.54688,2.55274 0,0.92361 -0.18228,1.78579 -0.54688,2.58789 -0.34028,0.80206 -0.81425,1.50758 -1.42187,2.11523 -0.60765,0.58333 -1.32596,1.0573 -2.15234,1.42188 -0.8021,0.34028 -1.6643,0.50976 -2.58789,0.50976 -0.92362,0 -1.79864,-0.16948 -2.625,-0.50976 -0.8021,-0.36458 -1.50762,-0.83855 -2.11524,-1.42188 -0.58333,-0.60765 -1.05728,-1.31317 -1.42187,-2.11523 -0.34026,-0.8021 -0.50977,-1.66428 -0.50977,-2.58789 0,-0.89931 0.16951,-1.75065 0.50977,-2.55274 0.36459,-0.82638 0.83854,-1.52995 1.42187,-2.11328 0.60762,-0.60765 1.31314,-1.08162 2.11524,-1.42188 0.82636,-0.36457 1.70138,-0.54687 2.625,-0.54687 z m -251.16211,4.00977 h 11.19335 l 20.16211,34.45312 v -34.45312 h 10.46289 v 52.28125 h -11.19335 l -20.16016,-34.41602 v 34.41602 h -10.46484 z m 128.84375,0 h 10.46484 V 485.375 c 0,0.72917 0.13303,1.42189 0.40039,2.07812 0.26736,0.63194 0.63194,1.18969 1.09375,1.67579 0.48611,0.4618 1.04579,0.82638 1.67773,1.09375 0.63195,0.26736 1.31185,0.40234 2.04102,0.40234 0.72917,0 1.40907,-0.13498 2.04102,-0.40234 0.63194,-0.26737 1.17882,-0.63195 1.64062,-1.09375 0.48611,-0.4861 0.8635,-1.04385 1.13086,-1.67579 0.26736,-0.65623 0.40039,-1.34895 0.40039,-2.07812 v -37.33398 h 10.46484 V 485.375 c 0,0.72917 0.13304,1.42189 0.4004,2.07812 0.26734,0.63194 0.63196,1.18969 1.09374,1.67579 0.48612,0.4618 1.04579,0.82638 1.67774,1.09375 0.63194,0.26736 1.31185,0.40234 2.04102,0.40234 0.72914,0 1.40907,-0.13498 2.04101,-0.40234 0.63195,-0.26737 1.17882,-0.63195 1.64063,-1.09375 0.48611,-0.4861 0.86349,-1.04385 1.13086,-1.67579 0.29164,-0.65623 0.4375,-1.34895 0.4375,-2.07812 v -37.33398 h 10.42773 V 485.375 c 0,2.1632 -0.41387,4.20487 -1.24023,6.125 -0.80209,1.89584 -1.91949,3.56011 -3.35352,4.99414 -1.40972,1.40971 -3.07595,2.52711 -4.99609,3.35352 -1.89584,0.80206 -3.92472,1.20312 -6.08789,1.20312 -1.94445,0 -3.81663,-0.33899 -5.61524,-1.01953 -1.77431,-0.68057 -3.37847,-1.67773 -4.8125,-2.99023 -1.43403,1.3125 -3.04905,2.30966 -4.84766,2.99023 -1.79861,0.68054 -3.67078,1.01953 -5.61523,1.01953 -2.16319,0 -4.20486,-0.40106 -6.125,-1.20312 -1.89583,-0.82641 -3.56011,-1.94381 -4.99414,-3.35352 -1.40972,-1.43403 -2.52908,-3.0983 -3.35547,-4.99414 -0.80208,-1.92013 -1.20312,-3.9618 -1.20312,-6.125 z m -42.91016,11.74023 c 1.62847,0 3.21983,0.1951 4.77539,0.58398 1.55556,0.38889 3.02669,0.94857 4.41211,1.67774 1.40972,0.72917 2.72222,1.62783 3.9375,2.69726 1.21528,1.04514 2.28342,2.22461 3.20703,3.53711 l -18.66601,22.49219 c 0.38887,0.12145 0.77712,0.20726 1.16601,0.25586 0.38889,0.0252 0.77908,0.0371 1.16797,0.0371 0.97222,0 1.90733,-0.13303 2.80664,-0.40039 0.89931,-0.26736 1.73787,-0.64474 2.51562,-1.13086 0.80209,-0.51041 1.5076,-1.11741 2.11524,-1.82227 0.63194,-0.72917 1.14236,-1.53126 1.53125,-2.40625 l 7.29101,7.32813 c -0.92359,1.31248 -1.9937,2.49197 -3.20898,3.53711 -1.19097,1.04514 -2.49067,1.931 -3.90039,2.66015 -1.38542,0.72918 -2.85655,1.27606 -4.41211,1.64063 -1.53125,0.38889 -3.10981,0.58398 -4.73828,0.58398 -2.74653,0 -5.33507,-0.51042 -7.76563,-1.53125 -2.40624,-1.02082 -4.52083,-2.4427 -6.34375,-4.26562 -1.79861,-1.82292 -3.22048,-3.98675 -4.26562,-6.49024 -1.04514,-2.52775 -1.56836,-5.2986 -1.56836,-8.3125 0,-3.08677 0.52322,-5.90494 1.56836,-8.45703 1.04514,-2.55208 2.46701,-4.72874 4.26562,-6.52734 1.82292,-1.79863 3.93751,-3.1949 6.34375,-4.19141 2.43056,-0.99653 5.0191,-1.49609 7.76563,-1.49609 z m -35.51172,1.49414 h 10.02734 v 39.04688 h -10.02734 z m 138.98047,0 h 10.02539 v 39.04688 h -10.02539 z m 56.72851,0 h 10.0254 v 39.04688 h -10.0254 z m -28,0.0723 h 20.16211 v 9.91796 h -20.16211 c -0.68054,1e-5 -1.26387,0.2424 -1.75,0.72852 -0.48607,0.4861 -0.72851,1.06943 -0.72851,1.75 0,0.70486 0.24244,1.31185 0.72851,1.82227 0.48613,0.48612 1.06946,0.73046 1.75,0.73047 h 10.35352 c 1.70137,-1e-5 3.30555,0.29166 4.8125,0.875 1.50695,0.55899 2.81944,1.34829 3.9375,2.36914 1.11806,1.02082 2.00586,2.24761 2.66211,3.68164 0.65625,1.43402 0.98437,3.00173 0.98437,4.70312 0,1.72568 -0.32812,3.34266 -0.98437,4.84961 -0.65625,1.48263 -1.54405,2.79513 -2.66211,3.9375 -1.11806,1.11806 -2.43055,2.00586 -3.9375,2.66211 -1.50695,0.63194 -3.11113,0.94727 -4.8125,0.94727 h -22.75 v -9.91602 h 22.75 c 0.68054,0 1.26388,-0.24437 1.75,-0.73047 0.4861,-0.48612 0.73047,-1.06946 0.73047,-1.75 0,-0.70486 -0.24437,-1.16601 -0.73047,-1.38476 -0.48612,-0.21871 -1.06946,-0.32813 -1.75,-0.32813 h -10.35352 c -1.72568,0 -3.34266,-0.32812 -4.8496,-0.98437 -1.50695,-0.65626 -2.81947,-1.54408 -3.9375,-2.66211 -1.11806,-1.14238 -2.00391,-2.46571 -2.66016,-3.97266 -0.63196,-1.50695 -0.94922,-3.12393 -0.94922,-4.84961 0,-1.72571 0.31726,-3.34269 0.94922,-4.84961 0.65625,-1.50695 1.5421,-2.81944 2.66016,-3.9375 1.11803,-1.11806 2.43055,-1.99306 3.9375,-2.625 1.50694,-0.65625 3.12392,-0.98437 4.8496,-0.98437 z m -132.19726,8.49609 c -1.36111,0 -2.64996,0.25521 -3.86524,0.76563 -1.19095,0.4861 -2.23545,1.18969 -3.13476,2.11328 -0.875,0.92361 -1.56771,2.04298 -2.07813,3.35546 -0.51041,1.28819 -0.76562,2.74655 -0.76562,4.375 0,0.3646 0.011,0.77648 0.0352,1.23829 0.0486,0.46178 0.11069,0.93575 0.18359,1.42187 0.0972,0.46181 0.20657,0.91212 0.32812,1.34961 0.12153,0.43749 0.27821,0.82573 0.47266,1.16602 l 11.59375,-15.38477 c -0.4618,-0.17008 -0.92296,-0.27952 -1.38477,-0.32812 -0.43748,-0.0487 -0.89865,-0.0723 -1.38476,-0.0723 z"
       style="opacity:1;vector-effect:none;fill:#66ff00;fill-opacity:1;fill-rule:evenodd;stroke:none;stroke-width:0.99999994px;stroke-linecap:butt;stroke-linejoin:miter;stroke-miterlimit:4;stroke-dasharray:none;stroke-dashoffset:0;stroke-opacity:1" />
  </g>
</svg>
