<?xml version="1.0" encoding="UTF-8" standalone="no"?>
<svg
   xmlns:dc="http://purl.org/dc/elements/1.1/"
   xmlns:cc="http://creativecommons.org/ns#"
   xmlns:rdf="http://www.w3.org/1999/02/22-rdf-syntax-ns#"
   xmlns:svg="http://www.w3.org/2000/svg"
   xmlns="http://www.w3.org/2000/svg"
   id="svg8"
   version="1.1"
   viewBox="0 0 93.357607 36.694402"
   height="138.6875"
   width="352.84766">
  <defs
     id="defs2" />
  <metadata
     id="metadata5">
    <rdf:RDF>
      <cc:Work
         rdf:about="">
        <dc:format>image/svg+xml</dc:format>
        <dc:type
           rdf:resource="http://purl.org/dc/dcmitype/StillImage" />
        <dc:title></dc:title>
      </cc:Work>
    </rdf:RDF>
  </metadata>
  <g
     transform="translate(-44.331448,-110.72955)"
     id="layer1">
    <path
       id="rect4516"
       d="m 49.721815,110.72955 c -2.98613,0 -5.390367,2.40372 -5.390367,5.38985 v 25.91418 c 0,2.98613 2.404237,5.39037 5.390367,5.39037 h 82.576875 c 2.98613,0 5.39037,-2.40424 5.39037,-5.39037 V 116.1194 c 0,-2.98613 -2.40424,-5.38985 -5.39037,-5.38985 z m 41.573175,10.80347 c 0.244372,0 0.472493,0.0482 0.684712,0.14469 0.218649,0.09 0.408186,0.21544 0.568958,0.37621 0.160771,0.15434 0.28617,0.341 0.376203,0.55966 0.09646,0.21221 0.144695,0.43746 0.144695,0.67541 0,0.24436 -0.04823,0.47249 -0.144695,0.68471 -0.09003,0.21222 -0.215432,0.39889 -0.376203,0.55965 -0.160772,0.15434 -0.350309,0.27974 -0.568958,0.37621 -0.212219,0.09 -0.44034,0.13487 -0.684712,0.13487 -0.244372,0 -0.475882,-0.0448 -0.694531,-0.13487 -0.212217,-0.0965 -0.398886,-0.22187 -0.559658,-0.37621 -0.154339,-0.16076 -0.279741,-0.34743 -0.376203,-0.55965 -0.09003,-0.21222 -0.134876,-0.44035 -0.134876,-0.68471 0,-0.23795 0.04484,-0.4632 0.134876,-0.67541 0.09646,-0.21866 0.221864,-0.40532 0.376203,-0.55966 0.160772,-0.16077 0.347441,-0.28617 0.559658,-0.37621 0.218649,-0.0965 0.450159,-0.14469 0.694531,-0.14469 z m 15.00942,0 c 0.24437,0 0.47249,0.0482 0.68471,0.14469 0.21865,0.09 0.40871,0.21544 0.56948,0.37621 0.16077,0.15434 0.28617,0.341 0.3762,0.55966 0.0965,0.21221 0.1447,0.43746 0.1447,0.67541 0,0.24436 -0.0482,0.47249 -0.1447,0.68471 -0.09,0.21222 -0.21543,0.39889 -0.3762,0.55965 -0.16077,0.15434 -0.35083,0.27974 -0.56948,0.37621 -0.21222,0.09 -0.44034,0.13487 -0.68471,0.13487 -0.24437,0 -0.47588,-0.0448 -0.69453,-0.13487 -0.21222,-0.0965 -0.39889,-0.22187 -0.55966,-0.37621 -0.15434,-0.16076 -0.27974,-0.34743 -0.3762,-0.55965 -0.09,-0.21222 -0.13488,-0.44035 -0.13488,-0.68471 0,-0.23795 0.0448,-0.4632 0.13488,-0.67541 0.0965,-0.21866 0.22186,-0.40532 0.3762,-0.55966 0.16077,-0.16077 0.34744,-0.28617 0.55966,-0.37621 0.21865,-0.0965 0.45016,-0.14469 0.69453,-0.14469 z m -32.363401,1.06144 h 2.768825 v 9.87743 c 0,0.19293 0.0352,0.3762 0.105936,0.54984 0.07074,0.1672 0.167201,0.31528 0.289388,0.4439 0.128617,0.12218 0.276699,0.21864 0.443899,0.28939 0.167201,0.0707 0.347094,0.10593 0.54002,0.10593 0.192924,0 0.372817,-0.0352 0.540018,-0.10593 0.167203,-0.0707 0.311896,-0.16721 0.434083,-0.28939 0.128617,-0.12862 0.228468,-0.2767 0.299207,-0.4439 0.07074,-0.17364 0.105936,-0.35691 0.105936,-0.54984 v -9.87743 h 2.768822 v 9.87743 c 0,0.19293 0.0352,0.3762 0.105937,0.54984 0.07074,0.1672 0.167201,0.31528 0.289388,0.4439 0.128617,0.12218 0.276699,0.21864 0.443902,0.28939 0.167201,0.0707 0.347094,0.10593 0.540017,0.10593 0.192926,0 0.372817,-0.0352 0.54002,-0.10593 0.167201,-0.0707 0.311896,-0.16721 0.434081,-0.28939 0.128616,-0.12862 0.228468,-0.2767 0.299207,-0.4439 0.07717,-0.17364 0.115755,-0.35691 0.115755,-0.54984 v -9.87743 h 2.759006 v 9.87743 c 0,0.57235 -0.109498,1.11253 -0.328147,1.62057 -0.212217,0.5016 -0.507862,0.94246 -0.887283,1.32188 -0.372988,0.373 -0.813848,0.66864 -1.321885,0.88729 -0.501605,0.21222 -1.038407,0.31833 -1.610754,0.31833 -0.514466,0 -1.009814,-0.0902 -1.485696,-0.27027 -0.469453,-0.18006 -0.893887,-0.44338 -1.273307,-0.79065 -0.379421,0.34727 -0.806728,0.61059 -1.28261,0.79065 -0.475883,0.18007 -0.97123,0.27027 -1.485697,0.27027 -0.572346,0 -1.112536,-0.10611 -1.620573,-0.31833 -0.501607,-0.21865 -0.941945,-0.51429 -1.321366,-0.88729 -0.372991,-0.37942 -0.669152,-0.82028 -0.887801,-1.32188 -0.21222,-0.50804 -0.318328,-1.04822 -0.318328,-1.62057 z m 16.022796,3.50159 h 2.652551 v 10.33115 h -2.652551 z m 15.009415,0 h 2.65255 v 10.33115 h -2.65255 z m -7.40833,0.0191 h 5.33456 v 2.62361 h -5.33456 c -0.180062,0 -0.334404,0.0647 -0.463021,0.19327 -0.128617,0.12862 -0.192752,0.28296 -0.192752,0.46302 0,0.1865 0.06414,0.34709 0.192752,0.48214 0.128617,0.12862 0.282959,0.19276 0.463021,0.19276 h 2.73937 c 0.45016,0 0.8746,0.0772 1.27331,0.23151 0.39871,0.14791 0.74597,0.35726 1.04179,0.62735 0.29582,0.27009 0.53072,0.59468 0.70435,0.9741 0.17364,0.37942 0.26045,0.79421 0.26045,1.24437 0,0.45659 -0.0868,0.88442 -0.26045,1.28312 -0.17363,0.39229 -0.40853,0.73955 -0.70435,1.0418 -0.29582,0.29582 -0.64308,0.5302 -1.04179,0.70383 -0.39871,0.16721 -0.82315,0.25115 -1.27331,0.25115 h -6.019272 v -2.62413 h 6.019272 c 0.18006,0 0.3344,-0.0641 0.46302,-0.19275 0.12862,-0.12861 0.19327,-0.28295 0.19327,-0.46302 0,-0.18649 -0.0647,-0.30851 -0.19327,-0.36639 -0.12862,-0.0579 -0.28296,-0.0868 -0.46302,-0.0868 h -2.73937 c -0.456589,0 -0.884412,-0.0868 -1.283126,-0.26044 -0.398711,-0.17364 -0.745977,-0.40853 -1.041797,-0.70435 -0.295817,-0.30225 -0.530199,-0.65291 -0.703831,-1.05162 -0.167204,-0.39871 -0.251148,-0.82602 -0.251148,-1.28261 0,-0.45659 0.08394,-0.88441 0.251148,-1.28313 0.173632,-0.39871 0.408014,-0.74597 0.703831,-1.04179 0.29582,-0.29582 0.643086,-0.52733 1.041797,-0.69453 0.398714,-0.17364 0.826537,-0.26045 1.283126,-0.26045 z"
       style="opacity:1;vector-effect:none;fill:#c83737;fill-opacity:1;fill-rule:evenodd;stroke:none;stroke-width:0.26458332px;stroke-linecap:butt;stroke-linejoin:miter;stroke-miterlimit:4;stroke-dasharray:none;stroke-dashoffset:0;stroke-opacity:1" />
  </g>
</svg>
