<?xml version="1.0" encoding="UTF-8" standalone="no"?>
<svg
   xmlns:dc="http://purl.org/dc/elements/1.1/"
   xmlns:cc="http://creativecommons.org/ns#"
   xmlns:rdf="http://www.w3.org/1999/02/22-rdf-syntax-ns#"
   xmlns:svg="http://www.w3.org/2000/svg"
   xmlns="http://www.w3.org/2000/svg"
   id="svg8"
   version="1.1"
   viewBox="0 0 32.340661 32.340658"
   height="122.23241"
   width="122.23242">
  <defs
     id="defs2" />
  <metadata
     id="metadata5">
    <rdf:RDF>
      <cc:Work
         rdf:about="">
        <dc:format>image/svg+xml</dc:format>
        <dc:type
           rdf:resource="http://purl.org/dc/dcmitype/StillImage" />
        <dc:title></dc:title>
      </cc:Work>
    </rdf:RDF>
  </metadata>
  <g
     transform="translate(-1.2439319,-92.175153)"
     id="layer1">
    <path
       id="rect4506"
       d="M 1.2439319,92.175153 V 124.51581 H 33.584593 V 92.175153 Z m 7.2026595,9.307957 H 13.34655 c 0.567886,0 1.100657,0.10862 1.598354,0.32556 0.497697,0.21695 0.931653,0.51341 1.301729,0.88987 0.376459,0.37009 0.673449,0.80404 0.890386,1.30173 0.216937,0.49769 0.325043,1.03046 0.325043,1.59835 0,0.56787 -0.108093,1.10408 -0.325043,1.60817 -0.216937,0.49768 -0.513927,0.93455 -0.890386,1.31103 -0.370078,0.37007 -0.804032,0.66364 -1.301729,0.88057 -0.497697,0.2169 -1.030468,0.32556 -1.598354,0.32556 h -1.378209 c -0.191426,0 -0.36999,0.0347 -0.535884,0.10491 -0.16591,0.0702 -0.312677,0.16955 -0.440283,0.29714 -0.121237,0.1212 -0.216654,0.26457 -0.286806,0.43046 -0.07016,0.16587 -0.10542,0.34445 -0.10542,0.53588 v 1.36891 h 6.489012 v 2.74661 H 7.8528294 v -4.11552 c 0,-0.56786 0.1086141,-1.10067 0.3255618,-1.59835 0.2169398,-0.50409 0.5104897,-0.94095 0.8805677,-1.31103 0.3764624,-0.37646 0.8133319,-0.67 1.3110291,-0.88056 0.497694,-0.21691 1.03047,-0.32557 1.598353,-0.32557 h 1.378209 c 0.191427,0 0.370515,-0.0352 0.536404,-0.10542 0.165914,-0.0702 0.309226,-0.16555 0.430463,-0.2868 0.127606,-0.12757 0.226433,-0.27435 0.296622,-0.44028 0.07007,-0.17225 0.105421,-0.35428 0.105421,-0.54571 0,-0.19139 -0.03523,-0.36995 -0.105421,-0.53588 -0.0702,-0.16587 -0.169016,-0.30974 -0.296622,-0.43098 -0.121237,-0.12759 -0.264559,-0.22643 -0.430463,-0.29662 -0.165915,-0.0701 -0.344991,-0.10491 -0.536404,-0.10491 H 8.4465914 Z m 13.2079786,2.67012 h 2.612761 v 2.8236 h 2.708362 v 2.60346 h -2.708362 v 2.61276 H 21.65457 v -2.61276 h -2.718178 v -2.60346 h 2.718178 z"
       style="opacity:1;vector-effect:none;fill:#2a7fff;fill-opacity:1;fill-rule:evenodd;stroke:none;stroke-width:0.26458332px;stroke-linecap:butt;stroke-linejoin:miter;stroke-miterlimit:4;stroke-dasharray:none;stroke-dashoffset:0;stroke-opacity:1" />
  </g>
</svg>
