<?xml version="1.0" encoding="UTF-8" standalone="no"?>
<svg
   xmlns:dc="http://purl.org/dc/elements/1.1/"
   xmlns:cc="http://creativecommons.org/ns#"
   xmlns:rdf="http://www.w3.org/1999/02/22-rdf-syntax-ns#"
   xmlns:svg="http://www.w3.org/2000/svg"
   xmlns="http://www.w3.org/2000/svg"
   id="svg8"
   version="1.1"
   viewBox="0 0 32.340661 32.341181"
   height="122.23438"
   width="122.23242">
  <defs
     id="defs2" />
  <metadata
     id="metadata5">
    <rdf:RDF>
      <cc:Work
         rdf:about="">
        <dc:format>image/svg+xml</dc:format>
        <dc:type
           rdf:resource="http://purl.org/dc/dcmitype/StillImage" />
        <dc:title></dc:title>
      </cc:Work>
    </rdf:RDF>
  </metadata>
  <g
     transform="translate(-23.84101,-102.54053)"
     id="layer1">
    <path
       id="rect4508"
       d="m 23.84101,102.54053 v 32.34118 h 32.340661 v -32.34118 z m 6.996473,9.30796 h 4.900474 c 0.567886,0 1.100643,0.10862 1.598353,0.32556 0.497684,0.21695 0.931638,0.51341 1.301729,0.88986 0.376457,0.3701 0.672918,0.80404 0.889868,1.30173 0.216937,0.4977 0.325562,1.03047 0.325562,1.59836 0,0.56787 -0.108611,1.10408 -0.325562,1.60817 -0.21695,0.49768 -0.513411,0.93455 -0.889868,1.31103 -0.370091,0.37007 -0.804045,0.66363 -1.301729,0.88057 -0.49771,0.2169 -1.030467,0.32555 -1.598353,0.32555 h -1.378209 c -0.191426,0 -0.369996,0.0352 -0.535887,0.10543 -0.165915,0.0702 -0.312676,0.16903 -0.440282,0.29662 -0.121235,0.12121 -0.217131,0.26457 -0.287322,0.43046 -0.07006,0.16587 -0.104902,0.34496 -0.104902,0.5364 v 1.3684 h 6.489009 v 2.74712 h -9.236127 v -4.11552 c 0,-0.56787 0.108611,-1.10067 0.325562,-1.59835 0.21695,-0.50409 0.510487,-0.94147 0.880565,-1.31154 0.376459,-0.37646 0.813334,-0.67001 1.311031,-0.88057 0.497697,-0.2169 1.030465,-0.32505 1.598353,-0.32505 h 1.378209 c 0.191426,0 0.369994,-0.0352 0.535885,-0.10542 0.165901,-0.0702 0.309745,-0.16607 0.430982,-0.28732 0.127603,-0.12757 0.226433,-0.27435 0.296622,-0.44028 0.07006,-0.17225 0.10542,-0.35427 0.10542,-0.5457 0,-0.19139 -0.03523,-0.36996 -0.10542,-0.53589 -0.07019,-0.16587 -0.169019,-0.30922 -0.296622,-0.43046 -0.121224,-0.12759 -0.265081,-0.22643 -0.430982,-0.29663 -0.165891,-0.0701 -0.344445,-0.10542 -0.535885,-0.10542 h -4.900474 z m 10.901658,5.49423 h 8.03982 v 2.60295 h -8.03982 z"
       style="opacity:1;vector-effect:none;fill:#2a7fff;fill-opacity:1;fill-rule:evenodd;stroke:none;stroke-width:0.26458332px;stroke-linecap:butt;stroke-linejoin:miter;stroke-miterlimit:4;stroke-dasharray:none;stroke-dashoffset:0;stroke-opacity:1" />
  </g>
</svg>
