<?xml version="1.0" encoding="UTF-8" standalone="no"?>
<svg
   xmlns:dc="http://purl.org/dc/elements/1.1/"
   xmlns:cc="http://creativecommons.org/ns#"
   xmlns:rdf="http://www.w3.org/1999/02/22-rdf-syntax-ns#"
   xmlns:svg="http://www.w3.org/2000/svg"
   xmlns="http://www.w3.org/2000/svg"
   id="svg8"
   version="1.1"
   viewBox="0 0 32.340661 32.340665"
   height="122.23243"
   width="122.23242">
  <defs
     id="defs2" />
  <metadata
     id="metadata5">
    <rdf:RDF>
      <cc:Work
         rdf:about="">
        <dc:format>image/svg+xml</dc:format>
        <dc:type
           rdf:resource="http://purl.org/dc/dcmitype/StillImage" />
        <dc:title></dc:title>
      </cc:Work>
    </rdf:RDF>
  </metadata>
  <g
     transform="translate(-51.828218,-98.809157)"
     id="layer1">
    <path
       id="rect4494"
       d="M 51.828218,98.809157 V 131.14982 H 84.168879 V 98.809157 Z m 11.959476,9.307963 h 4.899959 c 0.567881,0 1.100659,0.10861 1.598353,0.32556 0.4977,0.21694 0.931646,0.51341 1.301729,0.88987 0.376455,0.37008 0.673434,0.80404 0.890384,1.30173 0.216943,0.4977 0.325046,1.03046 0.325046,1.59835 0,0.56788 -0.108103,1.10409 -0.325046,1.60817 -0.216942,0.49768 -0.513921,0.93456 -0.890384,1.31103 -0.370083,0.37007 -0.804039,0.66362 -1.301729,0.88056 -0.497702,0.21695 -1.030472,0.32557 -1.598353,0.32557 h -1.378209 c -0.191429,0 -0.369991,0.0347 -0.535887,0.1049 -0.165902,0.0701 -0.312674,0.169 -0.440283,0.29662 -0.121226,0.12121 -0.217122,0.26508 -0.287321,0.43099 -0.07015,0.16586 -0.104902,0.34443 -0.104902,0.53588 v 1.36891 h 6.489009 v 2.7466 h -9.236128 v -4.11551 c 0,-0.56788 0.108612,-1.10067 0.325562,-1.59835 0.21694,-0.5041 0.510482,-0.94098 0.880565,-1.31103 0.376465,-0.37648 0.81334,-0.67001 1.311032,-0.88057 0.4977,-0.21695 1.03047,-0.32556 1.598353,-0.32556 h 1.378209 c 0.191426,0 0.370507,-0.0353 0.536401,-0.10542 0.165904,-0.0701 0.309237,-0.16557 0.430466,-0.28681 0.127609,-0.12758 0.226431,-0.27435 0.296622,-0.44028 0.07023,-0.17225 0.10542,-0.35426 0.10542,-0.5457 0,-0.19139 -0.03519,-0.36995 -0.10542,-0.53589 -0.07015,-0.16586 -0.168974,-0.30971 -0.296622,-0.43098 -0.121237,-0.12759 -0.26457,-0.22645 -0.430466,-0.29662 -0.165894,-0.0701 -0.344975,-0.1049 -0.536401,-0.1049 h -4.899959 z"
       style="opacity:1;vector-effect:none;fill:#2a7fff;fill-opacity:1;fill-rule:evenodd;stroke:none;stroke-width:0.26458332px;stroke-linecap:butt;stroke-linejoin:miter;stroke-miterlimit:4;stroke-dasharray:none;stroke-dashoffset:0;stroke-opacity:1" />
  </g>
</svg>
