<?xml version="1.0" encoding="UTF-8" standalone="no"?>
<svg
   xmlns:dc="http://purl.org/dc/elements/1.1/"
   xmlns:cc="http://creativecommons.org/ns#"
   xmlns:rdf="http://www.w3.org/1999/02/22-rdf-syntax-ns#"
   xmlns:svg="http://www.w3.org/2000/svg"
   xmlns="http://www.w3.org/2000/svg"
   id="svg8"
   version="1.1"
   viewBox="0 0 32.340661 32.340669"
   height="122.23244"
   width="122.23242">
  <defs
     id="defs2" />
  <metadata
     id="metadata5">
    <rdf:RDF>
      <cc:Work
         rdf:about="">
        <dc:format>image/svg+xml</dc:format>
        <dc:type
           rdf:resource="http://purl.org/dc/dcmitype/StillImage" />
        <dc:title></dc:title>
      </cc:Work>
    </rdf:RDF>
  </metadata>
  <g
     transform="translate(-38.974834,-96.943342)"
     id="layer1">
    <path
       id="rect4512"
       d="M 38.974834,96.943342 V 129.28401 H 71.315495 V 96.943342 Z m 6.494177,9.307448 5.493721,5.3e-4 c 0.56787,0 1.100661,0.10811 1.598353,0.32504 0.497689,0.21695 0.931638,0.51393 1.301729,0.89039 0.37646,0.37009 0.672917,0.80405 0.889868,1.30172 0.2169,0.4977 0.325562,1.03048 0.325562,1.59836 0,0.50406 -0.09244,0.99523 -0.277503,1.47381 -0.18505,0.47216 -0.446797,0.89632 -0.784966,1.27279 0.338169,0.37645 0.599924,0.80404 0.784966,1.28261 0.18507,0.47216 0.277503,0.96045 0.277503,1.46451 0,0.5679 -0.108622,1.10065 -0.325562,1.59835 -0.216951,0.4977 -0.513408,0.93458 -0.889868,1.31103 -0.370091,0.37008 -0.80404,0.66362 -1.301729,0.88057 -0.497692,0.2169 -1.030483,0.32556 -1.598353,0.32556 h -5.493721 v -2.74712 h 5.493721 c 0.191421,0 0.370004,-0.0347 0.535884,-0.1049 0.16592,-0.0702 0.309224,-0.16609 0.430464,-0.28732 0.127601,-0.12759 0.226941,-0.2744 0.29714,-0.44029 0.07022,-0.16588 0.104902,-0.34442 0.104902,-0.53588 0,-0.19138 -0.0347,-0.36996 -0.104902,-0.53589 -0.0702,-0.16587 -0.169539,-0.30975 -0.29714,-0.43098 -0.12124,-0.1276 -0.264554,-0.22642 -0.430464,-0.29662 -0.165891,-0.0702 -0.344485,-0.10542 -0.535884,-0.10542 h -3.742407 v -2.7466 h 3.742407 c 0.191421,0 0.370004,-0.0352 0.535884,-0.10542 0.16592,-0.0702 0.309224,-0.16607 0.430464,-0.28732 0.127601,-0.12757 0.226941,-0.27436 0.29714,-0.44029 0.07022,-0.17225 0.104902,-0.35427 0.104902,-0.5457 0,-0.19139 -0.0347,-0.36996 -0.104902,-0.53589 -0.0702,-0.16587 -0.169539,-0.30922 -0.29714,-0.43046 -0.12124,-0.12759 -0.264554,-0.22642 -0.430464,-0.29662 -0.165891,-0.0701 -0.344485,-0.10542 -0.535884,-0.10542 h -5.493721 z m 14.031185,2.67063 h 2.61276 v 2.8236 h 2.708362 v 2.60294 h -2.708362 v 2.61328 h -2.61276 v -2.61328 h -2.718181 v -2.60294 h 2.718181 z"
       style="opacity:1;vector-effect:none;fill:#2a7fff;fill-opacity:1;fill-rule:evenodd;stroke:none;stroke-width:0.26458332px;stroke-linecap:butt;stroke-linejoin:miter;stroke-miterlimit:4;stroke-dasharray:none;stroke-dashoffset:0;stroke-opacity:1" />
  </g>
</svg>
