<?xml version="1.0" encoding="UTF-8" standalone="no"?>
<svg
   xmlns:dc="http://purl.org/dc/elements/1.1/"
   xmlns:cc="http://creativecommons.org/ns#"
   xmlns:rdf="http://www.w3.org/1999/02/22-rdf-syntax-ns#"
   xmlns:svg="http://www.w3.org/2000/svg"
   xmlns="http://www.w3.org/2000/svg"
   id="svg8"
   version="1.1"
   viewBox="0 0 32.340661 32.340671"
   height="122.23245"
   width="122.23242">
  <defs
     id="defs2" />
  <metadata
     id="metadata5">
    <rdf:RDF>
      <cc:Work
         rdf:about="">
        <dc:format>image/svg+xml</dc:format>
        <dc:type
           rdf:resource="http://purl.org/dc/dcmitype/StillImage" />
        <dc:title></dc:title>
      </cc:Work>
    </rdf:RDF>
  </metadata>
  <g
     transform="translate(-56.803721,-115.80879)"
     id="layer1">
    <path
       id="rect4514"
       d="m 56.803721,115.80879 v 32.34067 h 32.340661 v -32.34067 z m 6.287987,9.30796 h 5.49424 c 0.56787,0 1.100661,0.10863 1.59835,0.32556 0.497689,0.21695 0.931122,0.51341 1.301213,0.88987 0.37647,0.3701 0.673436,0.80405 0.890384,1.30173 0.2169,0.49769 0.325562,1.03048 0.325562,1.59835 0,0.50406 -0.09244,0.99575 -0.277501,1.47433 -0.185052,0.47216 -0.446796,0.89632 -0.784965,1.27279 0.33819,0.37645 0.599924,0.80404 0.784965,1.28261 0.185068,0.47216 0.277501,0.95994 0.277501,1.46399 0,0.56791 -0.10862,1.10117 -0.325562,1.59887 -0.216948,0.4977 -0.513914,0.93459 -0.890384,1.31104 -0.370091,0.37008 -0.803524,0.66361 -1.301213,0.88056 -0.497689,0.2169 -1.03048,0.32556 -1.59835,0.32556 h -5.49424 v -2.74712 h 5.49424 c 0.191407,0 0.369982,-0.0352 0.535884,-0.10541 0.16591,-0.0702 0.309234,-0.16558 0.430464,-0.28681 0.127608,-0.12759 0.226422,-0.27439 0.296622,-0.44028 0.07012,-0.16588 0.10542,-0.34495 0.10542,-0.53641 0,-0.19137 -0.03522,-0.36995 -0.10542,-0.53588 -0.07019,-0.16587 -0.169014,-0.30923 -0.296622,-0.43046 -0.12123,-0.1276 -0.264565,-0.22643 -0.430464,-0.29663 -0.165912,-0.0702 -0.344477,-0.10542 -0.535884,-0.10542 h -3.74241 v -2.74711 h 3.74241 c 0.191407,0 0.369982,-0.0352 0.535884,-0.10543 0.16591,-0.0702 0.309234,-0.16555 0.430464,-0.2868 0.127608,-0.12757 0.226422,-0.27435 0.296622,-0.44028 0.07012,-0.17225 0.10542,-0.35428 0.10542,-0.54571 0,-0.19139 -0.03522,-0.36995 -0.10542,-0.53588 -0.07019,-0.16587 -0.169014,-0.30974 -0.296622,-0.43098 -0.12123,-0.12759 -0.264565,-0.22642 -0.430464,-0.29663 -0.165912,-0.0701 -0.344477,-0.1049 -0.535884,-0.1049 h -5.49424 z m 11.724865,5.49373 h 8.03982 v 2.60345 h -8.03982 z"
       style="opacity:1;vector-effect:none;fill:#2a7fff;fill-opacity:1;fill-rule:evenodd;stroke:none;stroke-width:0.26458332px;stroke-linecap:butt;stroke-linejoin:miter;stroke-miterlimit:4;stroke-dasharray:none;stroke-dashoffset:0;stroke-opacity:1" />
  </g>
</svg>
