<?xml version="1.0" encoding="UTF-8" standalone="no"?>
<svg
   xmlns:dc="http://purl.org/dc/elements/1.1/"
   xmlns:cc="http://creativecommons.org/ns#"
   xmlns:rdf="http://www.w3.org/1999/02/22-rdf-syntax-ns#"
   xmlns:svg="http://www.w3.org/2000/svg"
   xmlns="http://www.w3.org/2000/svg"
   id="svg8"
   version="1.1"
   viewBox="0 0 32.340663 32.340661"
   height="122.23241"
   width="122.23243">
  <defs
     id="defs2" />
  <metadata
     id="metadata5">
    <rdf:RDF>
      <cc:Work
         rdf:about="">
        <dc:format>image/svg+xml</dc:format>
        <dc:type
           rdf:resource="http://purl.org/dc/dcmitype/StillImage" />
        <dc:title></dc:title>
      </cc:Work>
    </rdf:RDF>
  </metadata>
  <g
     transform="translate(-63.023099,-101.50422)"
     id="layer1">
    <path
       id="rect4496"
       d="m 63.023099,101.50422 v 32.34066 h 32.340664 v -32.34066 z m 11.365714,9.30848 h 5.49372 c 0.56788,0 1.10066,0.10809 1.59835,0.32504 0.4977,0.21694 0.93164,0.51393 1.30173,0.89039 0.37645,0.37009 0.67292,0.80404 0.88987,1.30172 0.21694,0.49771 0.32556,1.03048 0.32556,1.59835 0,0.50407 -0.0924,0.99525 -0.2775,1.47381 -0.18504,0.47217 -0.44679,0.89632 -0.78497,1.2728 0.33818,0.37645 0.59994,0.80404 0.78497,1.2826 0.18498,0.472 0.27744,0.96011 0.2775,1.464 0,0 0,5.3e-4 0,5.3e-4 -7e-5,0.56771 -0.10869,1.10031 -0.32556,1.59783 -0.21695,0.49771 -0.51342,0.93459 -0.88987,1.31103 -0.37009,0.3701 -0.80403,0.66362 -1.30173,0.88057 -0.49769,0.21694 -1.03047,0.32556 -1.59835,0.32556 h -5.49372 v -2.74712 h 5.49372 c 0.19143,0 0.36999,-0.0348 0.53589,-0.1049 0.16589,-0.0701 0.30974,-0.16608 0.43098,-0.28732 0.12761,-0.12758 0.22643,-0.27437 0.29662,-0.44028 0.0702,-0.16587 0.10542,-0.34442 0.10542,-0.53589 0,-0.19139 -0.0352,-0.36996 -0.10542,-0.53588 -0.0702,-0.16587 -0.16904,-0.30922 -0.29662,-0.43047 -0.12124,-0.12758 -0.26509,-0.22696 -0.43098,-0.29714 -0.16589,-0.0701 -0.34446,-0.1049 -0.53589,-0.1049 h -3.74241 v -2.74712 h 3.74241 c 0.19143,0 0.36999,-0.0348 0.53589,-0.10491 0.16589,-0.0701 0.30974,-0.16608 0.43098,-0.28731 0.12761,-0.1276 0.22643,-0.27436 0.29662,-0.44029 0.0702,-0.17225 0.10542,-0.35426 0.10542,-0.5457 0,-0.19139 -0.0352,-0.36995 -0.10542,-0.53588 -0.0702,-0.16587 -0.16904,-0.30919 -0.29662,-0.43047 -0.12124,-0.12758 -0.26509,-0.22645 -0.43098,-0.29662 -0.16589,-0.0702 -0.34446,-0.10542 -0.53589,-0.10542 h -5.49372 z"
       style="opacity:1;vector-effect:none;fill:#2a7fff;fill-opacity:1;fill-rule:evenodd;stroke:none;stroke-width:0.26458332px;stroke-linecap:butt;stroke-linejoin:miter;stroke-miterlimit:4;stroke-dasharray:none;stroke-dashoffset:0;stroke-opacity:1" />
  </g>
</svg>
