<?xml version="1.0" encoding="UTF-8" standalone="no"?>
<svg
   xmlns:dc="http://purl.org/dc/elements/1.1/"
   xmlns:cc="http://creativecommons.org/ns#"
   xmlns:rdf="http://www.w3.org/1999/02/22-rdf-syntax-ns#"
   xmlns:svg="http://www.w3.org/2000/svg"
   xmlns="http://www.w3.org/2000/svg"
   id="svg8"
   version="1.1"
   viewBox="0 0 32.340661 32.340661"
   height="122.23241"
   width="122.23242">
  <defs
     id="defs2" />
  <metadata
     id="metadata5">
    <rdf:RDF>
      <cc:Work
         rdf:about="">
        <dc:format>image/svg+xml</dc:format>
        <dc:type
           rdf:resource="http://purl.org/dc/dcmitype/StillImage" />
        <dc:title></dc:title>
      </cc:Work>
    </rdf:RDF>
  </metadata>
  <g
     transform="translate(6.8412614,-110.00404)"
     id="layer1">
    <path
       id="rect4522"
       d="M -6.8412614,110.00404 V 142.3447 H 25.4994 v -32.34066 z m 7.31738283,9.30744 8.47028317,5.3e-4 v 2.7466 H 2.945221 l -0.2485654,2.35438 h 2.507342 c 0.567889,0 1.110459,0.0989 1.627291,0.29662 0.523219,0.19776 0.982599,0.48496 1.378209,0.86145 0.39559,0.37007 0.711129,0.82311 0.94723,1.35909 0.236019,0.52961 0.354499,1.1265 0.354499,1.79007 0,0.66999 -0.11843,1.27269 -0.354499,1.80868 -0.236101,0.53598 -0.55164,0.989 -0.94723,1.35909 -0.39561,0.37008 -0.85499,0.65434 -1.378209,0.85214 -0.516832,0.19771 -1.059402,0.29662 -1.627291,0.29663 h -5.53196337 v -2.74712 H 5.2039976 c 0.185039,0 0.369975,-0.0289 0.555004,-0.0863 0.19142,-0.0574 0.360704,-0.14992 0.507463,-0.2775 0.15313,-0.1276 0.274502,-0.29002 0.363802,-0.48783 0.09576,-0.19777 0.14366,-0.43698 0.14366,-0.71778 0,-0.25522 -0.04796,-0.47883 -0.14366,-0.67025 -0.08934,-0.19778 -0.210672,-0.36016 -0.363802,-0.48782 -0.146749,-0.13397 -0.316043,-0.23273 -0.507463,-0.29663 -0.185039,-0.0702 -0.369975,-0.10542 -0.555004,-0.10542 h -5.53196337 z m 13.18885757,2.67064 h 2.612761 v 2.8236 h 2.708878 v 2.60294 H 16.27774 v 2.61328 h -2.612761 v -2.61328 h -2.718181 v -2.60294 h 2.718181 z"
       style="opacity:1;vector-effect:none;fill:#2a7fff;fill-opacity:1;fill-rule:evenodd;stroke:none;stroke-width:0.26458332px;stroke-linecap:butt;stroke-linejoin:miter;stroke-miterlimit:4;stroke-dasharray:none;stroke-dashoffset:0;stroke-opacity:1" />
  </g>
</svg>
