<?xml version="1.0" encoding="UTF-8" standalone="no"?>
<svg
   xmlns:dc="http://purl.org/dc/elements/1.1/"
   xmlns:cc="http://creativecommons.org/ns#"
   xmlns:rdf="http://www.w3.org/1999/02/22-rdf-syntax-ns#"
   xmlns:svg="http://www.w3.org/2000/svg"
   xmlns="http://www.w3.org/2000/svg"
   id="svg8"
   version="1.1"
   viewBox="0 0 32.34118 32.341181"
   height="122.23438"
   width="122.23438">
  <defs
     id="defs2" />
  <metadata
     id="metadata5">
    <rdf:RDF>
      <cc:Work
         rdf:about="">
        <dc:format>image/svg+xml</dc:format>
        <dc:type
           rdf:resource="http://purl.org/dc/dcmitype/StillImage" />
        <dc:title></dc:title>
      </cc:Work>
    </rdf:RDF>
  </metadata>
  <g
     transform="translate(-61.36434,-108.13797)"
     id="layer1">
    <path
       id="rect4526"
       d="m 61.36434,108.13797 v 32.34118 h 32.34118 v -32.34118 z m 9.743594,9.1121 H 74.8121 c -0.382852,0.24884 -0.756129,0.52623 -1.11983,0.83251 -0.36371,0.30627 -0.711536,0.63507 -1.043348,0.98599 -0.325397,0.35094 -0.628745,0.72077 -0.909505,1.11001 -0.280739,0.3892 -0.529267,0.79429 -0.746207,1.21543 0.274381,-0.18501 0.570828,-0.34107 0.889868,-0.46871 0.325422,-0.134 0.657119,-0.20102 0.995288,-0.20102 0.77207,0 1.467766,0.13062 2.086695,0.39222 0.625319,0.25525 1.15516,0.61581 1.589051,1.08159 0.43389,0.45941 0.768519,1.00832 1.004588,1.64641 0.236032,0.63805 0.354502,1.33669 0.354502,2.096 0,0.74017 -0.134062,1.43878 -0.402042,2.096 -0.26161,0.6572 -0.625618,1.23451 -1.091407,1.73219 -0.46578,0.49132 -1.020545,0.88078 -1.665015,1.16789 -0.63805,0.28714 -1.330335,0.43046 -2.076875,0.43046 -0.746559,0 -1.452034,-0.14332 -2.115632,-0.43046 -0.657202,-0.28711 -1.231078,-0.67657 -1.722377,-1.16789 -0.491321,-0.49768 -0.880748,-1.07499 -1.167887,-1.73219 -0.280741,-0.65722 -0.421164,-1.35583 -0.421164,-2.096 0,-0.88054 0.08611,-1.73864 0.258382,-2.57452 0.172281,-0.84226 0.424246,-1.63679 0.756026,-2.38332 0.3318,-0.75292 0.73688,-1.44517 1.215432,-2.07687 0.478568,-0.63169 1.02112,-1.18356 1.627291,-1.65572 z m 8.671303,5.49372 h 8.03982 v 2.60346 h -8.03982 z m -7.101374,0.52659 c -0.376471,0 -0.717947,0.07 -1.024226,0.21032 -0.306282,0.14035 -0.568026,0.33509 -0.784966,0.58394 -0.210579,0.24248 -0.373494,0.52621 -0.488342,0.85163 -0.114882,0.31904 -0.172082,0.66054 -0.172082,1.02423 -3e-6,0.35093 0.05722,0.68898 0.172082,1.01441 0.12124,0.31902 0.290521,0.60329 0.507461,0.85214 0.21695,0.24885 0.475258,0.44649 0.775147,0.59325 0.306281,0.14673 0.644834,0.22014 1.014926,0.22014 0.376449,0 0.71743,-0.0705 1.023709,-0.21084 0.306279,-0.14034 0.568026,-0.33163 0.784966,-0.57412 0.216951,-0.24885 0.382794,-0.53603 0.497645,-0.86145 0.121258,-0.32542 0.181901,-0.66983 0.181901,-1.03353 0,-0.36369 -0.06067,-0.70519 -0.181901,-1.02423 -0.114851,-0.32542 -0.280694,-0.60915 -0.497645,-0.85163 -0.21694,-0.24884 -0.478687,-0.44358 -0.784966,-0.58394 -0.306279,-0.14038 -0.64726,-0.21032 -1.023709,-0.21032 z"
       style="opacity:1;vector-effect:none;fill:#2a7fff;fill-opacity:1;fill-rule:evenodd;stroke:none;stroke-width:0.26458332px;stroke-linecap:butt;stroke-linejoin:miter;stroke-miterlimit:4;stroke-dasharray:none;stroke-dashoffset:0;stroke-opacity:1" />
  </g>
</svg>
