<?xml version="1.0" encoding="UTF-8" standalone="no"?>
<svg
   xmlns:dc="http://purl.org/dc/elements/1.1/"
   xmlns:cc="http://creativecommons.org/ns#"
   xmlns:rdf="http://www.w3.org/1999/02/22-rdf-syntax-ns#"
   xmlns:svg="http://www.w3.org/2000/svg"
   xmlns="http://www.w3.org/2000/svg"
   id="svg8"
   version="1.1"
   viewBox="0 0 32.34118 32.340661"
   height="122.23241"
   width="122.23438">
  <defs
     id="defs2" />
  <metadata
     id="metadata5">
    <rdf:RDF>
      <cc:Work
         rdf:about="">
        <dc:format>image/svg+xml</dc:format>
        <dc:type
           rdf:resource="http://purl.org/dc/dcmitype/StillImage" />
        <dc:title></dc:title>
      </cc:Work>
    </rdf:RDF>
  </metadata>
  <g
     transform="translate(-62.193591,-106.0651)"
     id="layer1">
    <path
       id="rect4502"
       d="m 62.193591,106.0651 v 32.34066 h 32.34118 V 106.0651 Z m 14.696779,9.11159 h 3.70365 c -0.382846,0.24884 -0.756128,0.52675 -1.11983,0.83302 -0.363699,0.30629 -0.711031,0.63454 -1.042829,0.98547 -0.325413,0.35094 -0.628753,0.72129 -0.909505,1.11053 -0.280755,0.38921 -0.529786,0.7943 -0.746726,1.21543 0.274373,-0.18502 0.57136,-0.34106 0.890387,-0.46871 0.325419,-0.13396 0.657106,-0.20102 0.995288,-0.20102 0.772065,0 1.46776,0.13063 2.086692,0.39223 0.625309,0.25524 1.154647,0.6158 1.588535,1.08158 0.433893,0.45941 0.769027,1.00834 1.005107,1.64642 0.236085,0.63806 0.353983,1.33668 0.353983,2.09599 0,0.74018 -0.134048,1.43879 -0.402042,2.096 -0.261607,0.65721 -0.625105,1.23451 -1.09089,1.73219 -0.465794,0.49133 -1.021078,0.88078 -1.665531,1.16789 -0.638067,0.28713 -1.330336,0.43046 -2.076876,0.43046 -0.746546,0 -1.451523,-0.14333 -2.115116,-0.43046 -0.657215,-0.28711 -1.23158,-0.67656 -1.722893,-1.16789 -0.491321,-0.49768 -0.880245,-1.07498 -1.167371,-1.73219 -0.280752,-0.65721 -0.421164,-1.35582 -0.421164,-2.096 0,-0.88053 0.08612,-1.73916 0.258385,-2.57504 0.172291,-0.84226 0.424238,-1.63627 0.756025,-2.3828 0.331801,-0.75292 0.736883,-1.44516 1.21543,-2.07687 0.47856,-0.63169 1.021125,-1.18406 1.627291,-1.65623 z m 1.569413,6.0203 c -0.37646,0 -0.717955,0.0705 -1.024226,0.21084 -0.306274,0.14035 -0.567502,0.33456 -0.78445,0.58343 -0.210566,0.24248 -0.373496,0.52673 -0.488341,0.85214 -0.114861,0.31904 -0.172083,0.66054 -0.172083,1.02423 0,0.35095 0.05722,0.689 0.172083,1.01441 0.121226,0.31904 0.290515,0.60279 0.507462,0.85163 0.21694,0.24886 0.475245,0.44701 0.775145,0.59376 0.306274,0.14673 0.644329,0.21962 1.01441,0.21962 0.37646,0 0.717952,-0.07 1.024226,-0.21032 0.306273,-0.14035 0.568018,-0.33162 0.784966,-0.57413 0.216939,-0.24883 0.382791,-0.53602 0.497644,-0.86144 0.121232,-0.32541 0.181901,-0.66983 0.181901,-1.03353 0,-0.36369 -0.06067,-0.70519 -0.181901,-1.02423 -0.114853,-0.32541 -0.280705,-0.60966 -0.497644,-0.85214 -0.216948,-0.24884 -0.478693,-0.44305 -0.784966,-0.58343 -0.306274,-0.14035 -0.647766,-0.21084 -1.024226,-0.21084 z"
       style="opacity:1;vector-effect:none;fill:#2a7fff;fill-opacity:1;fill-rule:evenodd;stroke:none;stroke-width:0.26458332px;stroke-linecap:butt;stroke-linejoin:miter;stroke-miterlimit:4;stroke-dasharray:none;stroke-dashoffset:0;stroke-opacity:1" />
  </g>
</svg>
