<?xml version="1.0" encoding="UTF-8" standalone="no"?>
<!-- Created with Inkscape (http://www.inkscape.org/) -->

<svg
   xmlns:dc="http://purl.org/dc/elements/1.1/"
   xmlns:cc="http://creativecommons.org/ns#"
   xmlns:rdf="http://www.w3.org/1999/02/22-rdf-syntax-ns#"
   xmlns:svg="http://www.w3.org/2000/svg"
   xmlns="http://www.w3.org/2000/svg"
   xmlns:sodipodi="http://sodipodi.sourceforge.net/DTD/sodipodi-0.dtd"
   xmlns:inkscape="http://www.inkscape.org/namespaces/inkscape"
   width="793.70081"
   height="1122.5197"
   viewBox="0 0 210 297"
   version="1.1"
   id="svg8"
   inkscape:version="0.92.1 r15371"
   sodipodi:docname="main.svg">
  <defs
     id="defs2" />
  <sodipodi:namedview
     id="base"
     pagecolor="#ffffff"
     bordercolor="#666666"
     borderopacity="1.0"
     inkscape:pageopacity="0.0"
     inkscape:pageshadow="2"
     inkscape:zoom="0.90244697"
     inkscape:cx="443.88682"
     inkscape:cy="546.68943"
     inkscape:document-units="px"
     inkscape:current-layer="layer1"
     showgrid="false"
     inkscape:showpageshadow="false"
     units="px"
     inkscape:window-width="2560"
     inkscape:window-height="1027"
     inkscape:window-x="-8"
     inkscape:window-y="22"
     inkscape:window-maximized="1" />
  <metadata
     id="metadata5">
    <rdf:RDF>
      <cc:Work
         rdf:about="">
        <dc:format>image/svg+xml</dc:format>
        <dc:type
           rdf:resource="http://purl.org/dc/dcmitype/StillImage" />
        <dc:title></dc:title>
      </cc:Work>
    </rdf:RDF>
  </metadata>
  <g
     inkscape:label="Layer 1"
     inkscape:groupmode="layer"
     id="layer1">
    <path
       style="opacity:1;vector-effect:none;fill:#2a7fff;fill-opacity:1;fill-rule:evenodd;stroke:none;stroke-width:0.26458332px;stroke-linecap:butt;stroke-linejoin:miter;stroke-miterlimit:4;stroke-dasharray:none;stroke-dashoffset:0;stroke-opacity:1"
       d="M 20.449709,84.677685 V 117.01834 H 52.790373 V 84.677685 Z m 14.112314,9.30796 h 4.11551 v 13.724735 h -2.7466 V 96.732765 h -1.36891 z"
       id="rect4490"
       inkscape:connector-curvature="0"
       inkscape:label="1" />
    <path
       style="opacity:1;vector-effect:none;fill:#2a7fff;fill-opacity:1;fill-rule:evenodd;stroke:none;stroke-width:0.99999994px;stroke-linecap:butt;stroke-linejoin:miter;stroke-miterlimit:4;stroke-dasharray:none;stroke-dashoffset:0;stroke-opacity:1"
       d="M 225.66016,328.00586 V 450.23828 H 347.89258 V 328.00586 Z m 45.20117,35.17969 h 18.51953 c 2.14632,0 4.15997,0.41051 6.04102,1.23047 1.88107,0.81993 3.52118,1.94044 4.91992,3.36328 1.42282,1.39875 2.54526,3.0389 3.36523,4.91992 0.81994,1.88109 1.22852,3.89468 1.22852,6.04101 0,2.14632 -0.40858,4.17295 -1.22852,6.07813 -0.81994,1.88102 -1.94238,3.53221 -3.36523,4.95508 -1.39874,1.3987 -3.03889,2.50817 -4.91992,3.32812 -1.88108,0.81996 -3.8947,1.23047 -6.04102,1.23047 h -5.20898 c -0.72351,0 -1.39839,0.13134 -2.0254,0.39649 -0.62703,0.26512 -1.18176,0.63875 -1.66406,1.12109 -0.45818,0.4581 -0.82062,1.00186 -1.08594,1.62891 C 279.13135,398.10541 279,398.78033 279,399.50391 v 5.17382 h 24.52539 v 10.38086 h -34.9082 v -15.55468 c 0,-2.1463 0.4105,-4.16002 1.23047,-6.04102 0.81993,-1.90523 1.92938,-3.55643 3.32812,-4.95508 1.42286,-1.42291 3.07404,-2.53231 4.95508,-3.32812 1.88107,-0.81996 3.89469,-1.23047 6.04102,-1.23047 h 5.20898 c 0.7235,0 1.40034,-0.13332 2.02734,-0.39844 0.62704,-0.26515 1.16877,-0.62575 1.62696,-1.08398 0.4823,-0.48222 0.8558,-1.03694 1.12109,-1.66407 0.26545,-0.65101 0.39844,-1.33892 0.39844,-2.0625 0,-0.72336 -0.13299,-1.39824 -0.39844,-2.02539 -0.26513,-0.62689 -0.63864,-1.17055 -1.12109,-1.6289 -0.45822,-0.48222 -0.99995,-0.85587 -1.62696,-1.1211 -0.627,-0.26514 -1.30384,-0.39648 -2.02734,-0.39648 h -18.51953 z"
       transform="scale(0.26458333)"
       id="rect4494"
       inkscape:connector-curvature="0"
       inkscape:label="2" />
    <path
       style="opacity:1;vector-effect:none;fill:#2a7fff;fill-opacity:1;fill-rule:evenodd;stroke:none;stroke-width:0.26458332px;stroke-linecap:butt;stroke-linejoin:miter;stroke-miterlimit:4;stroke-dasharray:none;stroke-dashoffset:0;stroke-opacity:1"
       d="M 99.717426,86.784886 V 119.12555 H 132.05809 V 86.784886 Z m 11.365714,9.308475 h 5.49372 c 0.56788,0 1.10066,0.10809 1.59835,0.325046 0.4977,0.21694 0.93164,0.513929 1.30173,0.890384 0.37645,0.370094 0.67292,0.804042 0.88987,1.301729 0.21694,0.497707 0.32556,1.030475 0.32556,1.59835 0,0.50407 -0.0924,0.99525 -0.2775,1.47381 -0.18504,0.47217 -0.44679,0.89632 -0.78497,1.2728 0.33818,0.37645 0.59994,0.80404 0.78497,1.2826 0.18498,0.472 0.27744,0.96011 0.2775,1.464 0,0 0,5.3e-4 0,5.3e-4 -7e-5,0.56771 -0.10869,1.10031 -0.32556,1.59783 -0.21695,0.49771 -0.51342,0.93459 -0.88987,1.31103 -0.37009,0.3701 -0.80403,0.66362 -1.30173,0.88057 -0.49769,0.21694 -1.03047,0.32556 -1.59835,0.32556 h -5.49372 v -2.74712 h 5.49372 c 0.19143,0 0.36999,-0.0348 0.53589,-0.1049 0.16589,-0.0701 0.30974,-0.16608 0.43098,-0.28732 0.12761,-0.12758 0.22643,-0.27437 0.29662,-0.44028 0.0702,-0.16587 0.10542,-0.34442 0.10542,-0.53589 0,-0.19139 -0.0352,-0.36996 -0.10542,-0.53588 -0.0702,-0.16587 -0.16904,-0.30922 -0.29662,-0.43047 -0.12124,-0.12758 -0.26509,-0.22696 -0.43098,-0.29714 -0.16589,-0.0701 -0.34446,-0.1049 -0.53589,-0.1049 h -3.74241 v -2.74712 h 3.74241 c 0.19143,0 0.36999,-0.0348 0.53589,-0.10491 0.16589,-0.0701 0.30974,-0.16608 0.43098,-0.28731 0.12761,-0.1276 0.22643,-0.27436 0.29662,-0.44029 0.0702,-0.17225 0.10542,-0.35426 0.10542,-0.5457 0,-0.19139 -0.0352,-0.369954 -0.10542,-0.535887 -0.0702,-0.165865 -0.16904,-0.309189 -0.29662,-0.430464 -0.12124,-0.127587 -0.26509,-0.226449 -0.43098,-0.296622 -0.16589,-0.07015 -0.34446,-0.10542 -0.53589,-0.10542 h -5.49372 z"
       id="rect4496"
       inkscape:connector-curvature="0"
       inkscape:label="3" />
    <path
       style="opacity:1;vector-effect:none;fill:#2a7fff;fill-opacity:1;fill-rule:evenodd;stroke:none;stroke-width:0.99999994px;stroke-linecap:butt;stroke-linejoin:miter;stroke-miterlimit:4;stroke-dasharray:none;stroke-dashoffset:0;stroke-opacity:1"
       d="M 521.05664,328.00586 V 450.23828 H 643.28906 V 328.00586 Z m 46.1582,35.17969 h 10.38282 l -4.52149,31.14648 h 14.28711 v -25.9375 h 10.38281 v 25.9375 h 5.17383 v 10.3457 h -5.17383 v 10.38086 h -10.38281 v -10.38086 h -25.93555 z"
       transform="scale(0.26458333)"
       id="rect4498"
       inkscape:connector-curvature="0"
       inkscape:label="4" />
    <path
       style="opacity:1;vector-effect:none;fill:#2a7fff;fill-opacity:1;fill-rule:evenodd;stroke:none;stroke-width:0.99999994px;stroke-linecap:butt;stroke-linejoin:miter;stroke-miterlimit:4;stroke-dasharray:none;stroke-dashoffset:0;stroke-opacity:1"
       d="M 665.22852,328.00586 V 450.23828 H 787.46094 V 328.00586 Z m 45.5625,35.17969 h 32.01367 v 10.38281 h -22.68164 l -0.93946,8.89844 h 9.47657 c 2.14631,0 4.197,0.37363 6.15039,1.12109 1.97755,0.74747 3.71377,1.83292 5.20898,3.25586 1.49516,1.39873 2.68776,3.11097 3.58008,5.13672 0.89206,2.0011 1.33961,4.2564 1.33984,6.76367 0,0 0,0.002 0,0.002 -2.3e-4,2.53136 -0.4478,4.81067 -1.33984,6.83594 -0.89232,2.02573 -2.0849,3.73794 -3.58008,5.13672 -1.49521,1.39873 -3.23146,2.47118 -5.20898,3.21875 -1.95341,0.74749 -4.00408,1.12109 -6.15039,1.12109 h -20.90821 v -10.38086 h 20.90821 c 0.69939,0 1.39831,-0.10947 2.09765,-0.32617 0.7235,-0.21669 1.36329,-0.56631 1.91797,-1.04883 0.57872,-0.48226 1.03734,-1.09608 1.375,-1.84375 0.36175,-0.74746 0.54297,-1.65355 0.54297,-2.71484 0,-0.96461 -0.18122,-1.80775 -0.54297,-2.53125 -0.33764,-0.74744 -0.79625,-1.36321 -1.375,-1.8457 -0.55468,-0.50633 -1.19447,-0.87999 -1.91797,-1.1211 -0.69936,-0.26512 -1.39829,-0.39648 -2.09765,-0.39648 h -20.90821 z"
       transform="scale(0.26458333)"
       id="rect4500"
       inkscape:connector-curvature="0"
       inkscape:label="5" />
    <path
       style="opacity:1;vector-effect:none;fill:#2a7fff;fill-opacity:1;fill-rule:evenodd;stroke:none;stroke-width:0.99999994px;stroke-linecap:butt;stroke-linejoin:miter;stroke-miterlimit:4;stroke-dasharray:none;stroke-dashoffset:0;stroke-opacity:1"
       d="M 810.18359,328.00586 V 450.23828 H 932.41797 V 328.00586 Z m 55.54688,34.4375 h 13.99805 c -1.44698,0.94052 -2.85781,1.99087 -4.23243,3.14844 -1.37461,1.15762 -2.68736,2.39824 -3.9414,3.72461 -1.22991,1.32636 -2.37639,2.72614 -3.4375,4.19726 -1.06112,1.47104 -2.00234,3.00207 -2.82227,4.59375 1.037,-0.69929 2.15947,-1.28904 3.36524,-1.77148 1.22993,-0.50633 2.48355,-0.75977 3.76172,-0.75977 2.91804,0 5.54744,0.4937 7.88671,1.48242 2.36337,0.96472 4.36402,2.32744 6.00391,4.08789 1.63991,1.73634 2.90656,3.81104 3.79883,6.22266 0.89229,2.41159 1.33789,5.05203 1.33789,7.92188 0,2.79753 -0.50664,5.43794 -1.51953,7.92187 -0.98875,2.48396 -2.3626,4.66588 -4.12305,6.54688 -1.76048,1.857 -3.85919,3.32891 -6.29492,4.41406 -2.41159,1.08523 -5.02804,1.62695 -7.84961,1.62695 -2.82159,0 -5.48607,-0.54172 -7.99414,-1.62695 -2.48396,-1.08515 -4.65479,-2.55706 -6.51172,-4.41406 -1.85696,-1.881 -3.32691,-4.06292 -4.41211,-6.54688 -1.06111,-2.48393 -1.5918,-5.12434 -1.5918,-7.92187 0,-3.328 0.32548,-6.57322 0.97657,-9.73243 0.65118,-3.18334 1.60342,-6.18434 2.85742,-9.00586 1.25405,-2.84568 2.78507,-5.46205 4.59375,-7.84961 1.80873,-2.38747 3.85937,-4.47517 6.15039,-6.25976 z m 5.93164,22.75391 c -1.42284,0 -2.71353,0.2664 -3.87109,0.79687 -1.15757,0.53044 -2.14489,1.26448 -2.96485,2.20508 -0.79584,0.91646 -1.41164,1.99079 -1.8457,3.2207 -0.43412,1.20582 -0.65039,2.49653 -0.65039,3.8711 0,1.32641 0.21627,2.60407 0.65039,3.83398 0.45818,1.20582 1.09801,2.27828 1.91797,3.21875 0.81993,0.9406 1.7962,1.68948 2.92968,2.24414 1.15757,0.55456 2.43526,0.83008 3.83399,0.83008 1.42284,0 2.71352,-0.26448 3.87109,-0.79492 1.15757,-0.53047 2.14684,-1.25336 2.9668,-2.16993 0.81993,-0.94049 1.44677,-2.02592 1.88086,-3.25585 0.4582,-1.22991 0.6875,-2.53164 0.6875,-3.90625 0,-1.37457 -0.2293,-2.66528 -0.6875,-3.8711 -0.43409,-1.22991 -1.06093,-2.30424 -1.88086,-3.2207 -0.81996,-0.9405 -1.80923,-1.67453 -2.9668,-2.20508 -1.15757,-0.53047 -2.44825,-0.79687 -3.87109,-0.79687 z"
       transform="scale(0.26458333)"
       id="rect4502"
       inkscape:connector-curvature="0"
       inkscape:label="6" />
    <path
       style="opacity:1;vector-effect:none;fill:#2a7fff;fill-opacity:1;fill-rule:evenodd;stroke:none;stroke-width:0.99999994px;stroke-linecap:butt;stroke-linejoin:miter;stroke-miterlimit:4;stroke-dasharray:none;stroke-dashoffset:0;stroke-opacity:1"
       d="M 83.839844,476.0957 V 598.32812 H 206.07227 V 476.0957 Z m 34.130856,35.17969 h 15.55469 v 51.87305 H 123.14258 V 521.6582 h -5.17188 z m 33.85742,10.0918 h 9.87696 v 10.67187 h 10.23633 v 9.83985 h -10.23633 v 9.875 h -9.87696 v -9.875 h -10.27343 v -9.83985 h 10.27343 z"
       transform="scale(0.26458333)"
       id="rect4504"
       inkscape:connector-curvature="0"
       inkscape:label="1+" />
    <path
       style="opacity:1;vector-effect:none;fill:#2a7fff;fill-opacity:1;fill-rule:evenodd;stroke:none;stroke-width:0.99999994px;stroke-linecap:butt;stroke-linejoin:miter;stroke-miterlimit:4;stroke-dasharray:none;stroke-dashoffset:0;stroke-opacity:1"
       d="M 225.66016,480.01367 V 602.24609 H 347.89258 V 480.01367 Z m 27.22265,35.17969 h 18.51953 c 2.14634,0 4.15996,0.41054 6.04102,1.23047 1.88106,0.81997 3.52121,1.94044 4.91992,3.36328 1.42284,1.39876 2.54532,3.03889 3.36524,4.91992 0.81992,1.88103 1.22851,3.89466 1.22851,6.04102 0,2.14628 -0.40854,4.1729 -1.22851,6.07812 -0.81992,1.881 -1.9424,3.53216 -3.36524,4.95508 -1.39872,1.39869 -3.03886,2.50823 -4.91992,3.32813 -1.88106,0.81977 -3.89468,1.23046 -6.04102,1.23046 h -5.20898 c -0.7235,0 -1.39839,0.13117 -2.02539,0.39649 -0.62706,0.26521 -1.18177,0.64082 -1.66406,1.12305 -0.45822,0.45811 -0.81885,0.99996 -1.08399,1.62695 -0.26517,0.62691 -0.39844,1.30184 -0.39844,2.02539 v 5.17383 h 24.5254 v 10.38086 h -34.90821 v -15.55469 c 0,-2.14628 0.41051,-4.16002 1.23047,-6.04102 0.81993,-1.90522 1.92941,-3.55635 3.32813,-4.95508 1.42285,-1.42284 3.07401,-2.5323 4.95507,-3.32812 1.88105,-0.81978 3.89469,-1.23047 6.04102,-1.23047 h 5.20898 c 0.7235,0 1.40037,-0.13311 2.02735,-0.39844 0.62708,-0.26521 1.16873,-0.62571 1.62695,-1.08398 0.48229,-0.48215 0.85581,-1.03693 1.12109,-1.66406 0.26482,-0.65103 0.39844,-1.33899 0.39844,-2.0625 0,-0.72337 -0.13315,-1.39826 -0.39844,-2.02539 -0.26532,-0.62691 -0.6388,-1.17068 -1.12109,-1.62891 -0.45822,-0.48223 -0.99991,-0.85577 -1.62695,-1.12109 -0.62708,-0.26502 -1.3039,-0.39649 -2.02735,-0.39649 h -18.51953 z m 49.91992,10.0918 h 9.875 v 10.67187 h 10.23633 v 9.83985 h -10.23633 v 9.875 h -9.875 v -9.875 H 292.5293 v -9.83985 h 10.27343 z"
       transform="scale(0.26458333)"
       id="rect4506"
       inkscape:connector-curvature="0"
       inkscape:label="2+" />
    <path
       style="opacity:1;vector-effect:none;fill:#2a7fff;fill-opacity:1;fill-rule:evenodd;stroke:none;stroke-width:0.99999994px;stroke-linecap:butt;stroke-linejoin:miter;stroke-miterlimit:4;stroke-dasharray:none;stroke-dashoffset:0;stroke-opacity:1"
       d="M 225.66016,625.75195 V 747.98633 H 347.89258 V 625.75195 Z m 26.44336,35.17969 H 270.625 c 2.14634,0 4.15991,0.41054 6.04102,1.23047 1.88101,0.81997 3.52115,1.94044 4.91992,3.36328 1.42283,1.39877 2.54331,3.03889 3.36328,4.91992 0.81992,1.88104 1.23047,3.89466 1.23047,6.04102 0,2.14628 -0.4105,4.1729 -1.23047,6.07812 -0.81997,1.881 -1.94045,3.53216 -3.36328,4.95508 -1.39877,1.39869 -3.03891,2.50823 -4.91992,3.32813 -1.88111,0.81978 -3.89468,1.23046 -6.04102,1.23046 h -5.20898 c -0.7235,0 -1.39841,0.13312 -2.0254,0.39844 -0.62708,0.26521 -1.18177,0.63887 -1.66406,1.1211 -0.45821,0.45811 -0.82065,0.99996 -1.08594,1.62695 -0.26481,0.62691 -0.39648,1.30379 -0.39648,2.02734 v 5.17188 h 24.52539 v 10.38281 h -34.9082 v -15.55469 c 0,-2.14628 0.4105,-4.16002 1.23047,-6.04101 0.81997,-1.90522 1.9294,-3.55831 3.32812,-4.95703 1.42284,-1.42284 3.07402,-2.53231 4.95508,-3.32813 1.88106,-0.81978 3.89467,-1.22851 6.04102,-1.22851 h 5.20898 c 0.7235,0 1.3984,-0.13312 2.02539,-0.39844 0.62703,-0.26521 1.17069,-0.62767 1.62891,-1.08594 0.48228,-0.48215 0.85581,-1.03692 1.12109,-1.66406 0.26481,-0.65103 0.39844,-1.33899 0.39844,-2.0625 0,-0.72337 -0.13315,-1.39826 -0.39844,-2.02539 -0.26528,-0.62691 -0.63881,-1.16873 -1.12109,-1.62696 -0.45817,-0.48223 -1.00188,-0.85577 -1.62891,-1.12109 -0.62699,-0.26502 -1.30184,-0.39844 -2.02539,-0.39844 h -18.52148 z m 41.20312,20.76563 h 30.38672 v 9.83789 h -30.38672 z"
       transform="scale(0.26458333)"
       id="rect4508"
       inkscape:connector-curvature="0"
       inkscape:label="2-" />
    <path
       style="opacity:1;vector-effect:none;fill:#2a7fff;fill-opacity:1;fill-rule:evenodd;stroke:none;stroke-width:0.99999994px;stroke-linecap:butt;stroke-linejoin:miter;stroke-miterlimit:4;stroke-dasharray:none;stroke-dashoffset:0;stroke-opacity:1"
       d="M 376.88477,473.74609 V 595.97852 H 499.11719 V 473.74609 Z m 24.54492,35.17774 20.76367,0.002 c 2.14628,0 4.15998,0.40862 6.04102,1.22852 1.88103,0.81997 3.52115,1.94239 4.91992,3.36523 1.42284,1.3988 2.54331,3.03893 3.36328,4.91992 0.81978,1.88104 1.23047,3.8947 1.23047,6.04102 0,1.90511 -0.34939,3.7615 -1.04883,5.57031 -0.6994,1.78454 -1.68868,3.38767 -2.9668,4.81055 1.27812,1.4228 2.26743,3.03889 2.9668,4.84765 0.69948,1.78455 1.04883,3.63005 1.04883,5.53516 0,2.14639 -0.41054,4.15995 -1.23047,6.04102 -0.81997,1.88107 -1.94044,3.53227 -3.36328,4.95507 -1.39877,1.39873 -3.03889,2.50816 -4.91992,3.32813 -1.88104,0.81978 -3.89474,1.23047 -6.04102,1.23047 h -20.76367 v -10.38281 h 20.76367 c 0.72348,0 1.39844,-0.13117 2.02539,-0.39649 0.6271,-0.26521 1.16872,-0.62774 1.62695,-1.08594 0.48227,-0.48223 0.85773,-1.03707 1.12305,-1.66406 0.2654,-0.62695 0.39648,-1.30176 0.39648,-2.02539 0,-0.72333 -0.13116,-1.39825 -0.39648,-2.02539 -0.26532,-0.62691 -0.64078,-1.17071 -1.12305,-1.62891 -0.45823,-0.48226 -0.99989,-0.85577 -1.62695,-1.12109 -0.62699,-0.26547 -1.30199,-0.39844 -2.02539,-0.39844 H 408.04883 V 529.6895 h 14.14453 c 0.72348,0 1.39844,-0.13311 2.02539,-0.39843 0.6271,-0.26521 1.16872,-0.62767 1.62695,-1.08594 0.48227,-0.48216 0.85773,-1.03693 1.12305,-1.66406 0.2654,-0.65103 0.39648,-1.33899 0.39648,-2.0625 0,-0.72337 -0.13116,-1.39826 -0.39648,-2.0254 -0.26532,-0.62691 -0.64078,-1.16872 -1.12305,-1.62695 -0.45823,-0.48223 -0.99989,-0.85577 -1.62695,-1.12109 -0.62699,-0.26502 -1.30199,-0.39844 -2.02539,-0.39844 h -20.76367 z m 53.03125,10.09375 h 9.875 v 10.67187 h 10.23633 v 9.83789 h -10.23633 v 9.87696 h -9.875 v -9.87696 H 444.1875 v -9.83789 h 10.27344 z"
       id="rect4512"
       inkscape:connector-curvature="0"
       transform="scale(0.26458333)"
       inkscape:label="3+" />
    <path
       style="opacity:1;vector-effect:none;fill:#2a7fff;fill-opacity:1;fill-rule:evenodd;stroke:none;stroke-width:0.99999994px;stroke-linecap:butt;stroke-linejoin:miter;stroke-miterlimit:4;stroke-dasharray:none;stroke-dashoffset:0;stroke-opacity:1"
       d="M 376.88477,620.26758 V 742.5 H 499.11719 V 620.26758 Z m 23.76562,35.17969 h 20.76563 c 2.14628,0 4.15998,0.41057 6.04101,1.23046 1.88103,0.81997 3.5192,1.94044 4.91797,3.36329 1.42288,1.3988 2.54527,3.03892 3.36523,4.91992 0.81978,1.88103 1.23047,3.8947 1.23047,6.04101 0,1.90511 -0.34939,3.76346 -1.04882,5.57227 -0.69941,1.78454 -1.68868,3.38767 -2.9668,4.81055 1.2782,1.4228 2.26743,3.03888 2.9668,4.84765 0.69947,1.78454 1.04882,3.6281 1.04882,5.5332 0,2.1464 -0.41053,4.1619 -1.23047,6.04297 -0.81996,1.88107 -1.94235,3.53228 -3.36523,4.95508 -1.39877,1.39873 -3.03694,2.50816 -4.91797,3.32813 -1.88103,0.81978 -3.89473,1.23047 -6.04101,1.23047 h -20.76563 v -10.38282 h 20.76563 c 0.72343,0 1.39836,-0.13311 2.02539,-0.39843 0.62706,-0.26521 1.16876,-0.6258 1.62695,-1.08399 0.4823,-0.48223 0.85577,-1.03708 1.12109,-1.66406 0.26502,-0.62695 0.39844,-1.30372 0.39844,-2.02735 0,-0.72332 -0.13311,-1.39825 -0.39844,-2.02539 -0.26528,-0.62691 -0.63879,-1.16876 -1.12109,-1.62695 -0.45819,-0.48227 -0.99993,-0.85577 -1.62695,-1.12109 -0.62707,-0.26548 -1.30196,-0.39844 -2.02539,-0.39844 h -14.14454 v -10.38281 h 14.14454 c 0.72343,0 1.39836,-0.13312 2.02539,-0.39844 0.62706,-0.26521 1.16876,-0.62572 1.62695,-1.08398 0.4823,-0.48216 0.85577,-1.03693 1.12109,-1.66407 0.26502,-0.65102 0.39844,-1.33898 0.39844,-2.0625 0,-0.72336 -0.13311,-1.39825 -0.39844,-2.02539 -0.26528,-0.62691 -0.63879,-1.17067 -1.12109,-1.6289 -0.45819,-0.48223 -0.99993,-0.85577 -1.62695,-1.1211 -0.62707,-0.26502 -1.30196,-0.39648 -2.02539,-0.39648 h -20.76563 z m 44.31445,20.76367 h 30.38672 v 9.83984 h -30.38672 z"
       transform="scale(0.26458333)"
       id="rect4514"
       inkscape:connector-curvature="0"
       inkscape:label="3-" />
    <path
       style="opacity:1;vector-effect:none;fill:#2a7fff;fill-opacity:1;fill-rule:evenodd;stroke:none;stroke-width:0.99999994px;stroke-linecap:butt;stroke-linejoin:miter;stroke-miterlimit:4;stroke-dasharray:none;stroke-dashoffset:0;stroke-opacity:1"
       d="M 521.05664,628.88672 V 751.11914 H 643.28906 V 628.88672 Z m 27.2207,35.17969 h 10.38282 l -4.52149,31.14648 h 14.28906 v -25.9375 h 10.38086 v 25.9375 h 5.17383 v 10.3457 h -5.17383 v 10.38086 h -10.38086 v -10.38086 h -25.9375 z m 43.19336,20.76367 h 30.38477 v 9.83984 H 591.4707 Z"
       transform="scale(0.26458333)"
       id="rect4516"
       inkscape:connector-curvature="0"
       inkscape:label="4-" />
    <path
       style="opacity:1;vector-effect:none;fill:#2a7fff;fill-opacity:1;fill-rule:evenodd;stroke:none;stroke-width:0.99999994px;stroke-linecap:butt;stroke-linejoin:miter;stroke-miterlimit:4;stroke-dasharray:none;stroke-dashoffset:0;stroke-opacity:1"
       d="M 521.05664,483.14844 V 605.38086 H 643.28906 V 483.14844 Z m 28,35.17968 h 10.38086 l -4.52148,31.14454 h 14.28906 v -25.93555 h 10.38086 v 25.93555 h 5.17383 v 10.3457 h -5.17383 v 10.38281 h -10.38086 v -10.38281 h -25.9375 z m 51.9082,10.0918 h 9.87696 v 10.67188 h 10.23632 v 9.83984 H 610.8418 v 9.875 h -9.87696 v -9.875 h -10.27343 v -9.83984 h 10.27343 z"
       transform="scale(0.26458333)"
       id="rect4518"
       inkscape:connector-curvature="0"
       inkscape:label="4+" />
    <path
       style="opacity:1;vector-effect:none;fill:#2a7fff;fill-opacity:1;fill-rule:evenodd;stroke:none;stroke-width:0.99999994px;stroke-linecap:butt;stroke-linejoin:miter;stroke-miterlimit:4;stroke-dasharray:none;stroke-dashoffset:0;stroke-opacity:1"
       d="M 665.22852,628.88672 V 751.11914 H 787.46094 V 628.88672 Z m 26.87695,35.17969 h 32.01562 v 10.38281 h -22.68164 l -0.9414,8.89844 h 9.47851 c 2.14636,0 4.1951,0.37361 6.14844,1.12109 1.97756,0.74744 3.71579,1.83291 5.21094,3.25586 1.49525,1.39869 2.6878,3.11097 3.58008,5.13672 0.89212,2.00167 1.33789,4.25569 1.33789,6.76367 0,2.53225 -0.44555,4.8121 -1.33789,6.83789 -0.89228,2.02575 -2.08483,3.73795 -3.58008,5.13672 -1.49515,1.39873 -3.23338,2.47116 -5.21094,3.21875 -1.95334,0.74725 -4.00208,1.12301 -6.14844,1.12305 h -20.9082 v -10.38282 h 20.9082 c 0.6994,0 1.39829,-0.10922 2.09766,-0.32617 0.72351,-0.21694 1.36328,-0.56663 1.91797,-1.04883 0.57876,-0.48226 1.03749,-1.09807 1.375,-1.8457 0.36196,-0.74748 0.54101,-1.65156 0.54101,-2.71289 0,-0.96457 -0.17931,-1.80777 -0.54101,-2.53125 -0.33763,-0.74751 -0.79624,-1.36321 -1.375,-1.8457 -0.55469,-0.50635 -1.19446,-0.87959 -1.91797,-1.1211 -0.6994,-0.26547 -1.39833,-0.39843 -2.09766,-0.39843 h -20.9082 z m 41.13086,20.76367 h 30.38672 v 9.83984 h -30.38672 z"
       transform="scale(0.26458333)"
       id="rect4520"
       inkscape:connector-curvature="0"
       inkscape:label="5-" />
    <path
       style="opacity:1;vector-effect:none;fill:#2a7fff;fill-opacity:1;fill-rule:evenodd;stroke:none;stroke-width:0.99999994px;stroke-linecap:butt;stroke-linejoin:miter;stroke-miterlimit:4;stroke-dasharray:none;stroke-dashoffset:0;stroke-opacity:1"
       d="M 665.22852,482.36523 V 604.59766 H 787.46094 V 482.36523 Z m 27.65625,35.17774 32.01367,0.002 v 10.38086 H 702.2168 l -0.93946,8.89844 h 9.47657 c 2.14635,0 4.19701,0.37362 6.15039,1.12109 1.97752,0.74744 3.71376,1.83291 5.20898,3.25586 1.49514,1.39869 2.68773,3.11097 3.58008,5.13672 0.89204,2.00168 1.33984,4.25764 1.33984,6.76563 0,2.53224 -0.44761,4.81014 -1.33984,6.83593 -0.89235,2.02575 -2.08494,3.73796 -3.58008,5.13672 -1.49522,1.39873 -3.23146,2.47311 -5.20898,3.22071 -1.95338,0.74725 -4.00404,1.12105 -6.15039,1.12109 H 689.8457 v -10.38281 h 20.90821 c 0.69936,0 1.39833,-0.10923 2.09765,-0.32618 0.72348,-0.21694 1.36329,-0.56663 1.91797,-1.04882 0.57876,-0.48227 1.03749,-1.09613 1.375,-1.84375 0.36193,-0.74748 0.54297,-1.65157 0.54297,-2.71289 0,-0.96458 -0.18127,-1.80973 -0.54297,-2.53321 -0.33766,-0.74751 -0.79624,-1.36125 -1.375,-1.84375 -0.55464,-0.50634 -1.19449,-0.87958 -1.91797,-1.12109 -0.69936,-0.26548 -1.39833,-0.39844 -2.09765,-0.39844 H 689.8457 Z m 49.84765,10.09375 h 9.875 v 10.67187 h 10.23828 v 9.83789 h -10.23828 v 9.87696 h -9.875 v -9.87696 h -10.27344 v -9.83789 h 10.27344 z"
       transform="scale(0.26458333)"
       id="rect4522"
       inkscape:connector-curvature="0"
       inkscape:label="5+" />
    <path
       style="opacity:1;vector-effect:none;fill:#2a7fff;fill-opacity:1;fill-rule:evenodd;stroke:none;stroke-width:0.99999994px;stroke-linecap:butt;stroke-linejoin:miter;stroke-miterlimit:4;stroke-dasharray:none;stroke-dashoffset:0;stroke-opacity:1"
       d="M 810.18359,477.66211 V 599.89648 H 932.41797 V 477.66211 Z m 36.82618,34.43945 h 14 c -1.447,0.9405 -2.85781,1.98889 -4.23243,3.14649 -1.37465,1.15755 -2.68927,2.40025 -3.94336,3.72656 -1.22985,1.32639 -2.37636,2.72417 -3.4375,4.19531 -1.06106,1.47099 -2.00038,3.00204 -2.82031,4.59375 1.03703,-0.69925 2.15746,-1.28906 3.36328,-1.77148 1.22994,-0.50646 2.4836,-0.75977 3.76172,-0.75977 2.91806,0 5.54746,0.4937 7.88672,1.48242 2.36341,0.96473 4.36596,2.32747 6.00586,4.08789 1.6399,1.73636 2.90464,3.81098 3.79687,6.22266 0.89209,2.41153 1.33985,5.05204 1.33985,7.92188 0,2.79749 -0.50669,5.43789 -1.51953,7.92187 -0.98876,2.48391 -2.36454,4.66588 -4.125,6.54688 -1.76043,1.85695 -3.85718,3.32892 -6.29297,4.41406 -2.41153,1.08525 -5.02804,1.62695 -7.84961,1.62695 -2.82164,0 -5.488,-0.5417 -7.99609,-1.62695 -2.48391,-1.08514 -4.65289,-2.55711 -6.50977,-4.41406 -1.85696,-1.881 -3.32881,-4.06297 -4.41406,-6.54688 -1.06107,-2.48398 -1.5918,-5.12438 -1.5918,-7.92187 0,-3.32803 0.32546,-6.57124 0.97656,-9.73047 0.65114,-3.18335 1.60345,-6.18628 2.85742,-9.00782 1.25405,-2.84568 2.78506,-5.46208 4.59376,-7.8496 1.80876,-2.38749 3.85935,-4.47328 6.15039,-6.25782 z m 32.77343,20.76367 h 30.38672 v 9.83985 H 879.7832 Z m -26.83984,1.99024 c -1.42288,0 -2.7135,0.26443 -3.87109,0.79492 -1.1576,0.53046 -2.14687,1.26646 -2.9668,2.20703 -0.79589,0.91646 -1.41163,1.98882 -1.8457,3.21875 -0.4342,1.20582 -0.65039,2.49652 -0.65039,3.8711 -10e-6,1.32635 0.21627,2.60401 0.65039,3.83398 0.45823,1.20574 1.09803,2.28017 1.91796,3.2207 0.81997,0.94054 1.79625,1.68751 2.92969,2.24219 1.1576,0.55457 2.43717,0.83203 3.83594,0.83203 1.4228,0 2.71155,-0.26642 3.86914,-0.79687 1.15759,-0.53042 2.14687,-1.25339 2.9668,-2.16992 0.81997,-0.9405 1.44678,-2.02593 1.88086,-3.25586 0.4583,-1.22994 0.6875,-2.53164 0.6875,-3.90625 0,-1.37458 -0.22931,-2.66528 -0.6875,-3.8711 -0.43408,-1.22993 -1.06089,-2.30229 -1.88086,-3.21875 -0.81993,-0.9405 -1.80921,-1.67653 -2.9668,-2.20703 -1.15759,-0.53057 -2.44634,-0.79492 -3.86914,-0.79492 z"
       transform="scale(0.26458333)"
       id="rect4526"
       inkscape:connector-curvature="0"
       inkscape:label="6-" />
  </g>
</svg>
